<?xml version="1.0" encoding="iso-8859-1"?>
<!-- Generator: Adobe Illustrator 19.0.0, SVG Export Plug-In . SVG Version: 6.00 Build 0)  -->
<svg version="1.1" id="Capa_1" xmlns="http://www.w3.org/2000/svg" xmlns:xlink="http://www.w3.org/1999/xlink" x="0px" y="0px"
	 viewBox="0 0 512 512" style="enable-background:new 0 0 512 512;" xml:space="preserve">
<g>
	<rect y="150.069" style="fill:#E8594A;" width="211.862" height="256"/>
	<rect x="300.138" y="150.069" style="fill:#E8594A;" width="211.862" height="256"/>
</g>
<rect x="61.793" y="52.966" style="fill:#FDB62F;" width="88.276" height="97.103"/>
<rect x="114.759" y="52.966" style="fill:#F7A31B;" width="35.31" height="97.103"/>
<polygon style="fill:#E8594A;" points="35.31,0 61.793,52.966 150.069,52.966 176.552,0 "/>
<polygon style="fill:#D65245;" points="141.241,0 114.759,52.966 150.069,52.966 176.552,0 "/>
<rect x="361.931" y="52.966" style="fill:#FDB62F;" width="88.276" height="97.103"/>
<polygon style="fill:#E8594A;" points="335.448,0 361.931,52.966 450.207,52.966 476.69,0 "/>
<rect x="211.862" y="203.034" style="fill:#4398D1;" width="88.276" height="105.931"/>
<circle style="fill:#87CED9;" cx="256" cy="308.966" r="44.138"/>
<path style="fill:#4398D1;" d="M256,326.621c-9.754,0-17.655-7.901-17.655-17.655S246.246,291.31,256,291.31
	s17.655,7.901,17.655,17.655S265.754,326.621,256,326.621z"/>
<polygon style="fill:#D65245;" points="49.752,406.069 211.862,406.069 211.862,150.069 170.002,150.069 "/>
<circle style="fill:#61ACC9;" cx="105.931" cy="406.069" r="105.931"/>
<path style="fill:#F0E4D6;" d="M0,406.069L0,406.069c43.882-58.5,126.879-70.365,185.379-26.483
	c10.037,7.53,18.953,16.446,26.483,26.483l0,0c-43.882,58.5-126.879,70.365-185.379,26.483C16.446,425.022,7.53,416.106,0,406.069z"
	/>
<circle style="fill:#4398D1;" cx="105.931" cy="406.069" r="26.483"/>
<polygon style="fill:#D65245;" points="349.89,406.069 512,406.069 512,150.069 470.14,150.069 "/>
<circle style="fill:#61ACC9;" cx="406.069" cy="406.069" r="105.931"/>
<path style="fill:#F0E4D6;" d="M300.138,406.069L300.138,406.069c43.882-58.5,126.879-70.365,185.379-26.483
	c10.037,7.53,18.953,16.446,26.483,26.483l0,0c-43.882,58.5-126.879,70.365-185.379,26.483
	C316.584,425.022,307.668,416.106,300.138,406.069z"/>
<circle style="fill:#4398D1;" cx="406.069" cy="406.069" r="26.483"/>
<polygon style="fill:#D65245;" points="441.379,0 414.897,52.966 450.207,52.966 476.69,0 "/>
<rect x="414.897" y="52.966" style="fill:#F7A31B;" width="35.31" height="97.103"/>
<g>
</g>
<g>
</g>
<g>
</g>
<g>
</g>
<g>
</g>
<g>
</g>
<g>
</g>
<g>
</g>
<g>
</g>
<g>
</g>
<g>
</g>
<g>
</g>
<g>
</g>
<g>
</g>
<g>
</g>
</svg>
