<?xml version="1.0" encoding="iso-8859-1"?>
<!-- Generator: Adobe Illustrator 19.0.0, SVG Export Plug-In . SVG Version: 6.00 Build 0)  -->
<svg version="1.1" id="Capa_1" xmlns="http://www.w3.org/2000/svg" xmlns:xlink="http://www.w3.org/1999/xlink" x="0px" y="0px"
	 viewBox="0 0 511.999 511.999" style="enable-background:new 0 0 511.999 511.999;" xml:space="preserve">
<circle style="fill:#F9B44D;" cx="256.052" cy="255.964" r="141.222"/>
<circle style="fill:#FA982F;" cx="256.052" cy="255.964" r="105.916"/>
<g>
	<path style="fill:#F77219;" d="M256.034,141.248c-63.338,0.071-114.672,51.405-114.743,114.743h17.653
		c0.062-53.594,43.496-97.028,97.09-97.09V141.248z"/>
	<path style="fill:#F77219;" d="M353.124,255.991c-0.062,53.594-43.496,97.028-97.09,97.09v17.653
		c63.338-0.071,114.672-51.405,114.743-114.743L353.124,255.991L353.124,255.991z"/>
	<path style="fill:#F77219;" d="M264.86,335.428v-17.653h4.66c16.929,0.009,30.654-13.707,30.654-30.636
		c0.009-11.616-6.558-22.234-16.947-27.424l-46.489-23.24c-6.417-3.204-9.029-11.006-5.825-17.423
		c2.198-4.404,6.699-7.193,11.633-7.193h26.973c7.176,0.009,12.984,5.817,12.992,12.992v4.66h17.653v-4.66
		c-0.026-16.911-13.734-30.619-30.645-30.645h-4.66v-17.653h-17.653v17.653h-4.66c-16.929-0.009-30.654,13.707-30.654,30.636
		c-0.009,11.615,6.558,22.234,16.947,27.424l46.488,23.24c6.417,3.204,9.029,11.007,5.825,17.423
		c-2.198,4.404-6.699,7.193-11.633,7.193h-26.973c-7.176-0.009-12.984-5.817-12.992-12.992v-4.66h-17.653v4.66
		c0.026,16.911,13.734,30.619,30.645,30.645h4.66v17.653L264.86,335.428L264.86,335.428z"/>
</g>
<g>
	<path style="fill:#4398D1;" d="M436.975,75.094C336.972-24.829,174.902-24.767,74.988,75.235
		C1.27,149.015-20.32,260.13,20.423,356.143l39.595-19.833C15.621,228.117,67.344,104.424,175.529,60.036
		c79.04-32.428,169.819-14.184,230.192,46.259l-26.126,26.126h79.437V52.984L436.975,75.094z"/>
	<path style="fill:#4398D1;" d="M490.021,152.237l-39.498,19.753c46.462,107.302-2.86,231.948-110.162,278.41
		c-79.79,34.546-172.582,16.805-233.996-44.741l26.1-26.1H53.028v79.437l22.119-22.119c99.932,99.914,261.949,99.906,361.863-0.035
		c74.786-74.803,95.837-187.905,52.976-284.606L490.021,152.237z"/>
</g>
<g>
	<path style="fill:#3F8FC4;" d="M182.652,10.759C47.158,51.36-29.755,194.118,10.846,329.603c2.701,9.012,5.896,17.873,9.577,26.541
		l39.595-19.833c-35.129-85.713-10.495-184.303,60.823-243.422C134.769,61.069,155.934,32.948,182.652,10.759z"/>
	<path style="fill:#3F8FC4;" d="M511.999,255.991c0.026-35.747-7.458-71.096-21.978-103.754l-39.498,19.753
		c38.209,88.528,11.81,191.691-64.229,250.987c-6.002,23.107-14.608,45.465-25.667,66.621
		C452.712,448.37,511.99,356.885,511.999,255.991z"/>
</g>
<g>
</g>
<g>
</g>
<g>
</g>
<g>
</g>
<g>
</g>
<g>
</g>
<g>
</g>
<g>
</g>
<g>
</g>
<g>
</g>
<g>
</g>
<g>
</g>
<g>
</g>
<g>
</g>
<g>
</g>
</svg>
