<?xml version="1.0" encoding="iso-8859-1"?>
<!-- Generator: Adobe Illustrator 19.0.0, SVG Export Plug-In . SVG Version: 6.00 Build 0)  -->
<svg version="1.1" id="Capa_1" xmlns="http://www.w3.org/2000/svg" xmlns:xlink="http://www.w3.org/1999/xlink" x="0px" y="0px"
	 viewBox="0 0 512 512" style="enable-background:new 0 0 512 512;" xml:space="preserve">
<g>
	<path style="fill:#4398D1;" d="M61.961,193.468L61.961,193.468c18.603-3.055,36.164,9.557,39.219,28.16l0,0l0,0l-67.379,11.059l0,0
		l0,0C30.746,214.076,43.358,196.523,61.961,193.468z"/>
	
		<rect x="52.153" y="167.932" transform="matrix(-0.9869 0.1613 -0.1613 -0.9869 150.5558 359.4731)" style="fill:#4398D1;" width="17.067" height="35.831"/>
</g>
<polygon style="fill:#3685BA;" points="101.035,273.476 126.421,217.421 8.533,236.783 50.509,281.771 53.274,298.615 
	103.799,290.321 "/>
<g>
	<polygon style="fill:#4398D1;" points="143.01,318.473 137.481,284.791 103.799,290.321 53.274,298.615 19.593,304.145 
		25.122,337.826 58.803,332.297 109.329,324.002 	"/>
	<path style="fill:#4398D1;" d="M127.3,433.493l-50.5,8.269c-23.253,3.823-38.997,25.762-35.183,49.015l1.357,8.422l134.724-22.118
		l-1.382-8.422C172.484,445.414,150.545,429.679,127.3,433.493z"/>
</g>
<polygon style="fill:#3685BA;" points="109.329,324.002 58.803,332.297 68.361,443.145 135.723,432.085 "/>
<g>
	<polygon style="fill:#E8594A;" points="312.004,133.615 296.533,126.404 311.757,93.073 327.219,100.292 	"/>
	<polygon style="fill:#E8594A;" points="312.286,253.406 326.724,222.473 295.791,208.043 249.387,186.394 218.453,171.964 
		204.023,202.897 234.957,217.327 281.361,238.976 	"/>
	<path style="fill:#E8594A;" d="M234.462,339.507l-46.404-21.649c-21.359-9.958-46.746-0.725-56.704,20.634l0,0l-3.61,7.731
		l123.733,57.719l3.61-7.731C265.045,374.861,255.812,349.474,234.462,339.507z"/>
</g>
<g>
	<polygon style="fill:#D95345;" points="281.361,238.976 234.957,217.327 180.326,314.257 242.193,343.117 	"/>
	<path style="fill:#D95345;" d="M325.12,165.248c8.081-17.033,0.819-37.393-16.213-45.466c-17.033-8.081-37.393-0.819-45.466,16.213
		c-3.593,7.586-4.275,16.222-1.903,24.277l-12.194,26.129l46.404,21.649l12.186-26.138
		C315.503,178.637,321.613,172.706,325.12,165.248z"/>
</g>
<path style="fill:#FEC9A3;" d="M426.667,4.267h-135.68c-11.204,0-21.692,5.495-28.066,14.703l-45.517,65.758
	c-10.684,15.437-6.835,36.608,8.602,47.292c0.811,0.563,1.638,1.084,2.492,1.57l0,0c15.514,8.866,35.243,4.207,45.158-10.658
	L307.2,72.533h85.333c18.85,0,34.133,15.283,34.133,34.133l0,0c0,18.85-15.283,34.133-34.133,34.133h-32.666
	c-17.937-0.299-33.22,12.971-35.439,30.78c-1.852,18.756,11.853,35.473,30.618,37.325c1.109,0.111,2.236,0.162,3.354,0.162H512
	V4.267H426.667z"/>
<g>
	<rect y="490.667" style="fill:#87CED9;" width="512" height="17.067"/>
	
		<rect x="151.576" y="157.87" transform="matrix(-0.4472 0.8944 -0.8944 -0.4472 395.812 88.1815)" style="fill:#87CED9;" width="38.16" height="17.066"/>
	
		<rect x="119.462" y="147.318" transform="matrix(-0.8944 0.4472 -0.4472 -0.8944 316.8926 257.9884)" style="fill:#87CED9;" width="17.066" height="38.16"/>
	<path style="fill:#87CED9;" d="M277.803,446.566l-9.472-14.199c13.619-9.054,21.803-24.329,21.803-40.687v-3.413H307.2v3.413
		C307.209,413.747,296.175,434.347,277.803,446.566z"/>
</g>
<g>
</g>
<g>
</g>
<g>
</g>
<g>
</g>
<g>
</g>
<g>
</g>
<g>
</g>
<g>
</g>
<g>
</g>
<g>
</g>
<g>
</g>
<g>
</g>
<g>
</g>
<g>
</g>
<g>
</g>
</svg>
