<?xml version="1.0" encoding="iso-8859-1"?>
<!-- Generator: Adobe Illustrator 19.0.0, SVG Export Plug-In . SVG Version: 6.00 Build 0)  -->
<svg version="1.1" id="Capa_1" xmlns="http://www.w3.org/2000/svg" xmlns:xlink="http://www.w3.org/1999/xlink" x="0px" y="0px"
	 viewBox="0 0 512 512" style="enable-background:new 0 0 512 512;" xml:space="preserve">
<path style="fill:#4398D1;" d="M441.379,344.276L256,512L70.621,353.103V44.138h0.883c63.276,0,125.678-14.733,182.272-43.026L256,0
	l16.772,7.609c52.948,24.064,110.442,36.52,168.607,36.529l0,0V344.276z"/>
<path style="fill:#3F8FC4;" d="M345.318,32.503c-16.419,233.569-140.12,338.979-206.468,379.083L256,512l185.379-167.724V44.138
	C409.009,44.094,376.761,40.183,345.318,32.503z"/>
<path style="fill:#266599;" d="M255.373,473.785c-2.11,0-4.149-0.759-5.747-2.127L100.193,343.561c-1.96-1.677-3.09-4.122-3.09-6.7
	V78.089c-0.018-4.617,3.531-8.466,8.13-8.828c51.05-3.972,100.988-16.94,147.527-38.294c2.322-1.068,5.005-1.068,7.327,0
	l1.686,0.768c45.771,20.86,94.844,33.562,144.993,37.535c4.599,0.362,8.148,4.211,8.13,8.828v250.509
	c0,2.489-1.059,4.873-2.904,6.541L261.297,471.499C259.672,472.973,257.562,473.785,255.373,473.785z M114.759,332.8
	l140.456,120.399l142.027-128.512V86.148c-48.658-4.749-96.221-17.399-140.8-37.464c-44.871,20.127-92.734,32.786-141.683,37.491
	V332.8z"/>
<g>
	<polygon style="fill:#E8594A;" points="238.345,256 0,17.655 0,70.621 188.416,256 35.31,406.069 8.828,379.586 0,467.862 
		88.276,459.034 61.793,432.552 	"/>
	<polygon style="fill:#E8594A;" points="273.655,256 512,494.345 512,441.379 323.584,256 476.69,105.931 503.172,132.414 
		512,44.138 423.724,52.966 450.207,79.448 	"/>
</g>
<g>
	<rect x="247.172" y="70.621" style="fill:#266599;" width="17.655" height="17.655"/>
	<rect x="141.241" y="97.103" style="fill:#266599;" width="17.655" height="17.655"/>
	<rect x="194.207" y="88.276" style="fill:#266599;" width="17.655" height="17.655"/>
	<rect x="300.138" y="88.276" style="fill:#266599;" width="17.655" height="17.655"/>
	<rect x="353.103" y="97.103" style="fill:#266599;" width="17.655" height="17.655"/>
	<rect x="132.414" y="247.172" style="fill:#266599;" width="17.655" height="17.655"/>
	<rect x="361.931" y="247.172" style="fill:#266599;" width="17.655" height="17.655"/>
	<rect x="247.172" y="406.069" style="fill:#266599;" width="17.655" height="17.655"/>
	<rect x="203.034" y="370.759" style="fill:#266599;" width="17.655" height="17.655"/>
	<rect x="291.31" y="370.759" style="fill:#266599;" width="17.655" height="17.655"/>
	<rect x="167.724" y="335.448" style="fill:#266599;" width="17.655" height="17.655"/>
	<rect x="326.621" y="335.448" style="fill:#266599;" width="17.655" height="17.655"/>
</g>
<g>
</g>
<g>
</g>
<g>
</g>
<g>
</g>
<g>
</g>
<g>
</g>
<g>
</g>
<g>
</g>
<g>
</g>
<g>
</g>
<g>
</g>
<g>
</g>
<g>
</g>
<g>
</g>
<g>
</g>
</svg>
