<?xml version="1.0" encoding="iso-8859-1"?>
<!-- Generator: Adobe Illustrator 19.0.0, SVG Export Plug-In . SVG Version: 6.00 Build 0)  -->
<svg version="1.1" id="Capa_1" xmlns="http://www.w3.org/2000/svg" xmlns:xlink="http://www.w3.org/1999/xlink" x="0px" y="0px"
	 viewBox="0 0 512 512" style="enable-background:new 0 0 512 512;" xml:space="preserve">
<path style="fill:#18588C;" d="M256,501.696c-86.39,0.025-172.428-11.058-256-32.977l4.161-15.841
	c165.105,43.256,338.573,43.256,503.678,0L512,468.719C428.428,490.638,342.39,501.72,256,501.696z"/>
<path style="fill:#FEC9A3;" d="M256,149.542L256,149.542c13.572,0,24.573,11,24.573,24.573v16.382c0,13.572-11,24.573-24.573,24.573
	l0,0c-13.572,0-24.573-11-24.573-24.573v-16.382C231.427,160.551,242.428,149.542,256,149.542z"/>
<polygon style="fill:#266599;" points="321.528,403.462 288.764,346.125 264.191,346.125 223.236,346.125 174.09,403.462 
	190.472,460.798 174.09,468.989 172.551,489.983 230.911,491.514 215.045,411.653 247.809,378.889 264.191,378.889 296.955,428.035 
	354.291,460.798 346.1,485.371 370.673,485.371 395.246,444.416 "/>
<polygon style="fill:#E8594A;" points="108.563,247.268 108.563,288.223 165.9,320.987 223.236,288.223 223.236,346.125 
	288.764,346.125 288.764,288.223 354.291,320.987 403.437,288.223 403.437,247.268 354.291,280.032 288.764,247.268 
	215.045,247.268 165.9,280.032 "/>
<rect x="10.271" y="239.094" style="fill:#4398D1;" width="491.457" height="16.382"/>
<path style="fill:#F0E4D6;" d="M492.03,75.824c0.975-2.621,1.483-5.398,1.507-8.191c0-13.572-11-24.573-24.573-24.573
	c-3.735,0.025-7.413,0.901-10.747,2.572c-7.503-21.206-30.782-32.313-51.988-24.81c-11.59,4.104-20.707,13.22-24.81,24.81
	c-3.334-1.671-7.011-2.547-10.747-2.572c-13.572,0-24.573,11-24.573,24.573c0.025,2.793,0.532,5.57,1.507,8.191H492.03z"/>
<g>
	<path style="fill:#266599;" d="M83.99,43.068c-4.521,0-8.191-3.67-8.191-8.191s-3.67-8.191-8.191-8.191h-8.191V10.304h8.191
		c6.045-0.008,11.885,2.228,16.382,6.274c4.497-4.046,10.337-6.282,16.382-6.274h8.191v16.382h-8.191
		c-4.521,0-8.191,3.67-8.191,8.191S88.511,43.068,83.99,43.068z"/>
	<path style="fill:#266599;" d="M133.136,75.824c-4.521,0-8.191-3.67-8.191-8.191s-3.67-8.191-8.191-8.191h-8.191V43.06h8.191
		c6.045-0.008,11.885,2.228,16.382,6.274c4.497-4.046,10.337-6.282,16.382-6.274h8.191v16.382h-8.191
		c-4.521,0-8.191,3.67-8.191,8.191S137.657,75.824,133.136,75.824z"/>
	<path style="fill:#266599;" d="M34.844,75.824c-4.521,0-8.191-3.67-8.191-8.191s-3.67-8.191-8.191-8.191h-8.191V43.06h8.191
		c6.045-0.008,11.885,2.228,16.382,6.274c4.497-4.046,10.337-6.282,16.382-6.274h8.191v16.382h-8.191
		c-4.521,0-8.191,3.67-8.191,8.191S39.366,75.824,34.844,75.824z"/>
</g>
<g>
</g>
<g>
</g>
<g>
</g>
<g>
</g>
<g>
</g>
<g>
</g>
<g>
</g>
<g>
</g>
<g>
</g>
<g>
</g>
<g>
</g>
<g>
</g>
<g>
</g>
<g>
</g>
<g>
</g>
</svg>
