<?xml version="1.0" encoding="iso-8859-1"?>
<!-- Generator: Adobe Illustrator 19.0.0, SVG Export Plug-In . SVG Version: 6.00 Build 0)  -->
<svg version="1.1" id="Capa_1" xmlns="http://www.w3.org/2000/svg" xmlns:xlink="http://www.w3.org/1999/xlink" x="0px" y="0px"
	 viewBox="0 0 512 512" style="enable-background:new 0 0 512 512;" xml:space="preserve">
<path style="fill:#E0D2C1;" d="M256,388.414L256,388.414c0-34.127-27.666-61.793-61.793-61.793l0,0H0V26.483h211.862
	c24.373,0,44.138,19.765,44.138,44.138l0,0V388.414z"/>
<path style="fill:#CCBFB0;" d="M0,326.621h194.207c34.127,0,61.793,27.666,61.793,61.793l0,0v8.828l0,0H0l0,0V326.621L0,326.621z"/>
<path style="fill:#F0E4D6;" d="M256,388.414L256,388.414c0-34.127,27.666-61.793,61.793-61.793l0,0H512V26.483H300.138
	C275.765,26.483,256,46.248,256,70.621l0,0V388.414z"/>
<path style="fill:#CCBFB0;" d="M512,397.241H256l0,0v-8.828c0-34.127,27.666-61.793,61.793-61.793H512l0,0V397.241L512,397.241z"/>
<rect x="204.174" y="183.839" transform="matrix(-0.7071 0.7071 -0.7071 -0.7071 556.8537 268.1003)" style="fill:#4398D1;" width="37.455" height="131.08"/>
<g>
	<rect x="300.138" y="61.793" style="fill:#CCBFB0;" width="105.931" height="17.655"/>
	<rect x="300.138" y="97.103" style="fill:#CCBFB0;" width="176.552" height="17.655"/>
	<rect x="370.759" y="132.414" style="fill:#CCBFB0;" width="105.931" height="17.655"/>
	<rect x="300.138" y="167.724" style="fill:#CCBFB0;" width="176.552" height="17.655"/>
	<rect x="300.138" y="203.034" style="fill:#CCBFB0;" width="123.586" height="17.655"/>
	<rect x="300.138" y="238.345" style="fill:#CCBFB0;" width="176.552" height="17.655"/>
	<rect x="300.138" y="273.655" style="fill:#CCBFB0;" width="141.241" height="17.655"/>
	<rect x="423.724" y="61.793" style="fill:#CCBFB0;" width="52.966" height="17.655"/>
	<rect x="300.138" y="132.414" style="fill:#CCBFB0;" width="52.966" height="17.655"/>
	<rect x="441.379" y="203.034" style="fill:#CCBFB0;" width="35.31" height="17.655"/>
	<rect x="35.31" y="273.655" style="fill:#CCBFB0;" width="97.103" height="17.655"/>
	<rect x="150.069" y="273.655" style="fill:#CCBFB0;" width="35.31" height="17.655"/>
	<rect x="35.31" y="238.345" style="fill:#CCBFB0;" width="26.483" height="17.655"/>
</g>
<polygon style="fill:#4398D1;" points="476.69,485.517 282.483,485.517 264.828,467.862 282.483,450.207 476.69,450.207 "/>
<rect x="432.552" y="450.207" style="fill:#3685BA;" width="17.655" height="35.31"/>
<circle style="fill:#87CED9;" cx="123.586" cy="150.069" r="88.276"/>
<rect y="361.931" style="fill:#E8594A;" width="512" height="35.31"/>
<path style="fill:#7DC6D1;" d="M65.792,216.691c36.74,31.965,92.451,28.098,124.416-8.642c28.875-33.192,28.875-82.582,0-115.774
	L65.792,216.691z"/>
<g>
	<rect x="79.448" y="105.931" style="fill:#61ACC9;" width="88.276" height="17.655"/>
	<rect x="61.793" y="141.241" style="fill:#61ACC9;" width="123.586" height="17.655"/>
	<rect x="79.448" y="176.552" style="fill:#61ACC9;" width="88.276" height="17.655"/>
</g>
<g>
</g>
<g>
</g>
<g>
</g>
<g>
</g>
<g>
</g>
<g>
</g>
<g>
</g>
<g>
</g>
<g>
</g>
<g>
</g>
<g>
</g>
<g>
</g>
<g>
</g>
<g>
</g>
<g>
</g>
</svg>
