<?xml version="1.0" encoding="iso-8859-1"?>
<!-- Generator: Adobe Illustrator 19.0.0, SVG Export Plug-In . SVG Version: 6.00 Build 0)  -->
<svg version="1.1" id="Capa_1" xmlns="http://www.w3.org/2000/svg" xmlns:xlink="http://www.w3.org/1999/xlink" x="0px" y="0px"
	 viewBox="0 0 512 512" style="enable-background:new 0 0 512 512;" xml:space="preserve">
<path style="fill:#FEC9A3;" d="M212.393,424.995c-2.196-40.543-24.81-77.199-60.06-97.349l-0.469-0.269l-60.859-67.619
	c-9.034-10.006-24.463-10.795-34.469-1.762c-0.043,0.043-0.087,0.078-0.13,0.121V130.169c0-14.379-11.655-26.034-26.034-26.034
	S4.339,115.79,4.339,130.169v164.248c0,11.802,3.003,23.404,8.739,33.714L91.119,468.61V512H212.61v-86.78L212.393,424.995z"/>
<polygon style="fill:#F9B44D;" points="117.153,78.102 256,0 394.847,78.102 256,156.203 "/>
<polygon style="fill:#FA982F;" points="117.153,232.075 256,312.407 256,156.203 117.153,78.102 "/>
<polygon style="fill:#F77219;" points="256,156.203 256,312.407 394.847,232.075 394.847,78.102 "/>
<g>
	<rect x="351.458" y="208.271" style="fill:#E8594A;" width="17.356" height="17.356"/>
	<rect x="316.746" y="225.627" style="fill:#E8594A;" width="17.356" height="17.356"/>
	<rect x="282.034" y="242.983" style="fill:#E8594A;" width="17.356" height="17.356"/>
</g>
<path style="fill:#F5B789;" d="M125.83,380.963c-2.447,0-4.773-1.033-6.422-2.838L48.31,299.919
	c-11.915-13.078-11.438-33.219,1.093-45.716c3.445-3.332,8.938-3.237,12.271,0.217c3.246,3.367,3.246,8.695,0,12.054
	c-5.97,5.944-6.196,15.534-0.521,21.764l71.099,78.206c3.228,3.541,2.968,9.034-0.581,12.262
	C130.074,380.156,127.991,380.963,125.83,380.963z"/>
<path style="fill:#FEC9A3;" d="M299.607,424.995c2.195-40.543,24.81-77.199,60.06-97.349l0.469-0.269l60.859-67.619
	c9.034-10.006,24.463-10.795,34.469-1.762c0.043,0.043,0.087,0.078,0.13,0.121V130.169c0-14.379,11.655-26.034,26.034-26.034
	s26.034,11.655,26.034,26.034v164.248c0,11.802-3.003,23.404-8.739,33.714L420.881,468.61V512H299.39v-86.78L299.607,424.995z"/>
<path style="fill:#F5B789;" d="M386.169,380.963c2.447,0,4.773-1.033,6.422-2.838l71.099-78.197
	c11.915-13.078,11.438-33.219-1.093-45.716c-3.445-3.332-8.938-3.237-12.271,0.208c-3.246,3.367-3.246,8.695,0,12.062
	c5.97,5.944,6.196,15.534,0.521,21.764l-71.099,78.197c-3.228,3.541-2.968,9.034,0.581,12.262
	C381.926,380.156,384.009,380.963,386.169,380.963z"/>
<polygon style="fill:#F77219;" points="312.537,31.805 173.073,109.559 190.811,119.53 330.266,41.776 "/>
<g>
	<path style="fill:#F7C097;" d="M195.133,369.369C170.088,440.52,136.53,489.611,110.037,512H212.61v-86.78l-0.217-0.226
		C211.317,405.313,205.381,386.204,195.133,369.369z"/>
	<path style="fill:#F7C097;" d="M299.39,481.853V512h121.492v-43.39l78.041-140.479c2.864-5.155,5.059-10.657,6.534-16.367
		C435.322,410.138,329.98,466.823,299.39,481.853z"/>
</g>
<g>
</g>
<g>
</g>
<g>
</g>
<g>
</g>
<g>
</g>
<g>
</g>
<g>
</g>
<g>
</g>
<g>
</g>
<g>
</g>
<g>
</g>
<g>
</g>
<g>
</g>
<g>
</g>
<g>
</g>
</svg>
