<?xml version="1.0" encoding="iso-8859-1"?>
<!-- Generator: Adobe Illustrator 19.0.0, SVG Export Plug-In . SVG Version: 6.00 Build 0)  -->
<svg version="1.1" id="Capa_1" xmlns="http://www.w3.org/2000/svg" xmlns:xlink="http://www.w3.org/1999/xlink" x="0px" y="0px"
	 viewBox="0 0 511.993 511.993" style="enable-background:new 0 0 511.993 511.993;" xml:space="preserve">
<path style="fill:#4398D1;" d="M367.762,237.397c-10.17-88.075-89.802-151.238-177.878-141.068
	c-81.081,9.354-142.231,78.062-142.127,159.681c0,1.466-43.387,99.79-43.387,99.79h43.387v69.419c0,19.168,15.541,34.71,34.71,34.71
	h52.064v52.064h190.902v-23.932c0.885-60.768,12.357-120.911,33.894-177.739C367.744,286.988,370.634,262.024,367.762,237.397z"/>
<path style="fill:#3F8FC4;" d="M367.762,237.388c-4.755-40.601-24.852-77.853-56.169-104.129
	c-15.992,224.848-107.374,332.994-176.932,378.733h190.772v-23.932c0.885-60.768,12.357-120.911,33.894-177.739
	C367.744,286.988,370.634,262.024,367.762,237.388z"/>
<g>
	<path id="SVGCleanerId_0" style="fill:#87CED9;" d="M483.726,156.22c24.375-18.24,31.082-51.908,15.567-78.096
		c-16.044-26.31-48.697-37.261-77.359-25.937c-5.796-34.128-38.163-57.088-72.291-51.292c-26.258,4.46-46.832,25.034-51.292,51.292
		c-28.661-11.324-61.314-0.373-77.359,25.937c-15.515,26.188-8.808,59.857,15.567,78.096c-24.375,18.24-31.082,51.908-15.567,78.096
		c16.044,26.31,48.697,37.261,77.359,25.937c5.796,34.128,38.163,57.088,72.291,51.292c26.258-4.46,46.832-25.034,51.292-51.292
		c28.661,11.324,61.314,0.373,77.359-25.937C514.808,208.128,508.101,174.451,483.726,156.22z"/>
</g>
<g>
	<path id="SVGCleanerId_0_1_" style="fill:#87CED9;" d="M483.726,156.22c24.375-18.24,31.082-51.908,15.567-78.096
		c-16.044-26.31-48.697-37.261-77.359-25.937c-5.796-34.128-38.163-57.088-72.291-51.292c-26.258,4.46-46.832,25.034-51.292,51.292
		c-28.661-11.324-61.314-0.373-77.359,25.937c-15.515,26.188-8.808,59.857,15.567,78.096c-24.375,18.24-31.082,51.908-15.567,78.096
		c16.044,26.31,48.697,37.261,77.359,25.937c5.796,34.128,38.163,57.088,72.291,51.292c26.258-4.46,46.832-25.034,51.292-51.292
		c28.661,11.324,61.314,0.373,77.359-25.937C514.808,208.128,508.101,174.451,483.726,156.22z"/>
</g>
<g>
	<path id="SVGCleanerId_0_2_" style="fill:#87CED9;" d="M483.726,156.22c24.375-18.24,31.082-51.908,15.567-78.096
		c-16.044-26.31-48.697-37.261-77.359-25.937c-5.796-34.128-38.163-57.088-72.291-51.292c-26.258,4.46-46.832,25.034-51.292,51.292
		c-28.661-11.324-61.314-0.373-77.359,25.937c-15.515,26.188-8.808,59.857,15.567,78.096c-24.375,18.24-31.082,51.908-15.567,78.096
		c16.044,26.31,48.697,37.261,77.359,25.937c5.796,34.128,38.163,57.088,72.291,51.292c26.258-4.46,46.832-25.034,51.292-51.292
		c28.661,11.324,61.314,0.373,77.359-25.937C514.808,208.128,508.101,174.451,483.726,156.22z"/>
</g>
<g>
	<path style="fill:#266599;" d="M134.531,303.736c-19.168,0-34.71-15.541-34.71-34.71c0-19.168,15.541-34.71,34.71-34.71
		s34.71,15.541,34.71,34.71C169.241,288.194,153.699,303.736,134.531,303.736z M134.531,251.671
		c-9.589,0-17.355,7.766-17.355,17.355c0,9.589,7.766,17.355,17.355,17.355s17.355-7.766,17.355-17.355
		S144.111,251.671,134.531,251.671z"/>
	<rect x="47.757" y="381.797" style="fill:#266599;" width="43.387" height="17.355"/>
</g>
<path style="fill:#7DC6D1;" d="M483.726,156.22c24.375-18.24,31.082-51.908,15.567-78.096
	c-10.361-17.207-28.366-28.384-48.385-30.015c-15.359,93.776-68.074,177.331-146.101,231.573
	c11.003,20.279,32.271,32.853,55.336,32.731c30.675,0.33,56.967-21.858,61.792-52.16c28.661,11.324,61.314,0.373,77.359-25.937
	C514.808,208.128,508.101,174.451,483.726,156.22z"/>
<g>
	<path style="fill:#4398D1;" d="M368.82,208.285h-17.355v-10.17c0.052-18.006,7.202-35.265,19.897-48.029l5.085-5.085
		c6.213-6.248,9.701-14.682,9.727-23.49c0-14.378-11.654-26.032-26.032-26.032s-26.032,11.654-26.032,26.032v8.677h-17.355v-8.677
		c0-23.958,19.429-43.387,43.387-43.387s43.387,19.429,43.387,43.387c-0.035,13.407-5.363,26.258-14.812,35.759l-5.085,5.085
		c-9.45,9.502-14.778,22.353-14.812,35.759L368.82,208.285L368.82,208.285z"/>
	<rect x="351.465" y="225.605" style="fill:#4398D1;" width="17.355" height="17.355"/>
</g>
<g>
</g>
<g>
</g>
<g>
</g>
<g>
</g>
<g>
</g>
<g>
</g>
<g>
</g>
<g>
</g>
<g>
</g>
<g>
</g>
<g>
</g>
<g>
</g>
<g>
</g>
<g>
</g>
<g>
</g>
</svg>
