<?xml version="1.0" encoding="iso-8859-1"?>
<!-- Generator: Adobe Illustrator 19.0.0, SVG Export Plug-In . SVG Version: 6.00 Build 0)  -->
<svg version="1.1" id="Capa_1" xmlns="http://www.w3.org/2000/svg" xmlns:xlink="http://www.w3.org/1999/xlink" x="0px" y="0px"
	 viewBox="0 0 512 512" style="enable-background:new 0 0 512 512;" xml:space="preserve">
<path style="fill:#87CED9;" d="M21.695,0h468.61c9.589,0,17.356,7.767,17.356,17.356v381.831c0,9.589-7.767,17.356-17.356,17.356
	H21.695c-9.589,0-17.356-7.767-17.356-17.356V17.356C4.339,7.767,12.106,0,21.695,0z"/>
<path style="fill:#7DC6D1;" d="M490.305,0h-78.57L40.222,416.542h450.083c9.589,0,17.356-7.767,17.356-17.356V17.356
	C507.661,7.767,499.894,0,490.305,0z"/>
<rect x="47.729" y="86.78" style="fill:#4398D1;" width="104.136" height="34.712"/>
<rect x="117.153" y="121.492" style="fill:#88B337;" width="190.915" height="34.712"/>
<rect x="256" y="156.203" style="fill:#F56B0F;" width="138.847" height="34.712"/>
<rect x="360.136" y="190.915" style="fill:#F9B44D;" width="104.136" height="34.712"/>
<g>
	<rect x="212.61" y="373.153" style="fill:#61ACC9;" width="17.356" height="17.356"/>
	<rect x="177.898" y="373.153" style="fill:#61ACC9;" width="17.356" height="17.356"/>
	<rect x="143.186" y="373.153" style="fill:#61ACC9;" width="17.356" height="17.356"/>
	<rect x="108.475" y="373.153" style="fill:#61ACC9;" width="17.356" height="17.356"/>
	<rect x="73.763" y="373.153" style="fill:#61ACC9;" width="17.356" height="17.356"/>
	<rect x="39.051" y="373.153" style="fill:#61ACC9;" width="17.356" height="17.356"/>
	<rect x="455.593" y="373.153" style="fill:#61ACC9;" width="17.356" height="17.356"/>
	<rect x="39.051" y="147.525" style="fill:#61ACC9;" width="17.356" height="208.271"/>
	<rect x="143.186" y="182.237" style="fill:#61ACC9;" width="17.356" height="173.559"/>
	<rect x="108.475" y="182.237" style="fill:#61ACC9;" width="17.356" height="173.559"/>
	<rect x="247.322" y="216.949" style="fill:#61ACC9;" width="17.356" height="138.847"/>
	<rect x="351.458" y="251.661" style="fill:#61ACC9;" width="17.356" height="104.136"/>
	<rect x="386.169" y="251.661" style="fill:#61ACC9;" width="17.356" height="104.136"/>
	<rect x="455.593" y="251.661" style="fill:#61ACC9;" width="17.356" height="104.136"/>
	<rect x="403.525" y="26.034" style="fill:#61ACC9;" width="69.424" height="17.356"/>
	<rect x="39.051" y="26.034" style="fill:#61ACC9;" width="17.356" height="17.356"/>
	<rect x="73.763" y="26.034" style="fill:#61ACC9;" width="17.356" height="17.356"/>
	<rect x="108.475" y="26.034" style="fill:#61ACC9;" width="17.356" height="17.356"/>
	<rect x="403.525" y="60.746" style="fill:#61ACC9;" width="69.424" height="17.356"/>
</g>
<path style="fill:#FEC9A3;" d="M415.119,338.675c-9.45-1.614-18.415,4.747-20.029,14.197c-0.165,0.963-0.243,1.944-0.243,2.924
	c0-9.589-7.767-17.356-17.356-17.356c-9.589,0-17.356,7.767-17.356,17.356c0-9.589-7.767-17.356-17.356-17.356
	s-17.356,7.767-17.356,17.356V252.59c0.191-8.721-5.892-16.323-14.44-18.05c-9.45-1.614-18.415,4.747-20.029,14.197
	c-0.165,0.963-0.243,1.944-0.243,2.924v130.169c0-19.17-15.542-34.712-34.712-34.712v104.136L296.136,512h133.424V356.725
	C429.75,348.004,423.667,340.402,415.119,338.675z"/>
<path style="fill:#F5B789;" d="M290.712,425.22c-4.79,0-8.678-3.888-8.678-8.678v-34.712c0-4.79,3.888-8.678,8.678-8.678
	s8.678,3.888,8.678,8.678v34.712C299.39,421.333,295.502,425.22,290.712,425.22z"/>
<g>
</g>
<g>
</g>
<g>
</g>
<g>
</g>
<g>
</g>
<g>
</g>
<g>
</g>
<g>
</g>
<g>
</g>
<g>
</g>
<g>
</g>
<g>
</g>
<g>
</g>
<g>
</g>
<g>
</g>
</svg>
