<?xml version="1.0" encoding="iso-8859-1"?>
<!-- Generator: Adobe Illustrator 19.0.0, SVG Export Plug-In . SVG Version: 6.00 Build 0)  -->
<svg version="1.1" id="Capa_1" xmlns="http://www.w3.org/2000/svg" xmlns:xlink="http://www.w3.org/1999/xlink" x="0px" y="0px"
	 viewBox="0 0 512 512" style="enable-background:new 0 0 512 512;" xml:space="preserve">
<path style="fill:#87CED9;" d="M278.067,346.334l-78.268-78.268c-6.665-6.665-17.468-6.665-24.132,0L110.933,332.8v-29.867
	c0-11.785-9.549-21.333-21.333-21.333s-21.333,9.549-21.333,21.333V384L0,452.267V512h145.067l133.001-141.534
	C284.732,363.802,284.732,352.998,278.067,346.334z"/>
<path style="fill:#4398D1;" d="M370.27,233.737c-6.554-6.554-17.186-6.554-23.74,0l-78.66,78.66c-6.554,6.554-6.554,17.186,0,23.74
	l64.93,64.93h-29.867c-11.785,0-21.333,9.549-21.333,21.333s9.549,21.333,21.333,21.333H384L452.267,512H512V366.933L370.27,233.737
	z"/>
<path style="fill:#7DC6D1;" d="M0,512h145.067l77.653-86.144C150.4,450.56,75.785,467.985,0,477.867V512z"/>
<path style="fill:#3F8FC4;" d="M316.715,384.981l16.085,16.085h-29.867c-11.785,0-21.333,9.549-21.333,21.333
	s9.549,21.333,21.333,21.333H384L452.267,512H512V366.933l-71.108-66.492C403.174,333.679,361.464,362.078,316.715,384.981z"/>
<path style="fill:#4398D1;" d="M244.13,175.863l-64.93-64.93h29.867c11.785,0,21.333-9.549,21.333-21.333
	s-9.549-21.333-21.333-21.333H128L59.733,0H0v136.533l141.73,141.73c6.554,6.554,17.186,6.554,23.74,0l78.66-78.66
	C250.684,193.05,250.684,182.417,244.13,175.863z"/>
<path style="fill:#87CED9;" d="M375.467,0L233.933,141.534c-6.665,6.665-6.665,17.468,0,24.132l78.268,78.268
	c6.665,6.665,17.468,6.665,24.132,0l64.734-64.734v29.867c0,11.785,9.549,21.333,21.333,21.333s21.333-9.549,21.333-21.333V128
	l25.6-25.6L512,59.733V0H375.467z"/>
<g>
	
		<rect x="286.294" y="192.039" transform="matrix(-0.7071 0.7071 -0.7071 -0.7071 702.6609 110.0928)" style="fill:#61ACC9;" width="84.471" height="17.067"/>
	
		<rect x="260.704" y="166.433" transform="matrix(-0.7071 0.7071 -0.7071 -0.7071 640.869 84.4758)" style="fill:#61ACC9;" width="84.471" height="17.067"/>
	
		<rect x="235.092" y="140.839" transform="matrix(-0.7071 0.7071 -0.7071 -0.7071 579.0504 58.894)" style="fill:#61ACC9;" width="84.471" height="17.067"/>
</g>
<g>
	
		<rect x="192.001" y="141.227" transform="matrix(-0.7071 0.7071 -0.7071 -0.7071 472.0611 171.3898)" style="fill:#266599;" width="17.067" height="84.471"/>
	
		<rect x="166.399" y="166.838" transform="matrix(-0.7071 0.7071 -0.7071 -0.7071 446.4648 233.2145)" style="fill:#266599;" width="17.067" height="84.471"/>
	
		<rect x="140.793" y="192.428" transform="matrix(-0.7071 0.7071 -0.7071 -0.7071 420.8477 295.0065)" style="fill:#266599;" width="17.067" height="84.471"/>
</g>
<g>
	
		<rect x="141.227" y="302.932" transform="matrix(-0.7071 0.7071 -0.7071 -0.7071 533.4285 401.9776)" style="fill:#61ACC9;" width="84.471" height="17.067"/>
	
		<rect x="166.823" y="328.532" transform="matrix(-0.7071 0.7071 -0.7071 -0.7071 595.2265 427.58)" style="fill:#61ACC9;" width="84.471" height="17.067"/>
	
		<rect x="192.42" y="354.132" transform="matrix(-0.7071 0.7071 -0.7071 -0.7071 657.0245 453.1824)" style="fill:#61ACC9;" width="84.471" height="17.067"/>
</g>
<g>
	
		<rect x="302.926" y="286.331" transform="matrix(-0.7071 0.7071 -0.7071 -0.7071 764.0258 340.6625)" style="fill:#266599;" width="17.067" height="84.471"/>
	
		<rect x="328.535" y="260.709" transform="matrix(-0.7071 0.7071 -0.7071 -0.7071 789.6247 278.8147)" style="fill:#266599;" width="17.067" height="84.471"/>
	
		<rect x="354.126" y="235.095" transform="matrix(-0.7071 0.7071 -0.7071 -0.7071 815.2004 216.9936)" style="fill:#266599;" width="17.067" height="84.471"/>
</g>
<g>
</g>
<g>
</g>
<g>
</g>
<g>
</g>
<g>
</g>
<g>
</g>
<g>
</g>
<g>
</g>
<g>
</g>
<g>
</g>
<g>
</g>
<g>
</g>
<g>
</g>
<g>
</g>
<g>
</g>
</svg>
