<?xml version="1.0" encoding="iso-8859-1"?>
<!-- Generator: Adobe Illustrator 19.0.0, SVG Export Plug-In . SVG Version: 6.00 Build 0)  -->
<svg version="1.1" id="Capa_1" xmlns="http://www.w3.org/2000/svg" xmlns:xlink="http://www.w3.org/1999/xlink" x="0px" y="0px"
	 viewBox="0 0 512 512" style="enable-background:new 0 0 512 512;" xml:space="preserve">
<g>
	<rect x="164.043" y="441.379" style="fill:#4398D1;" width="182.44" height="17.655"/>
	
		<rect x="134.721" y="270.34" transform="matrix(-0.7972 0.6038 -0.6038 -0.7972 468.7002 400.8633)" style="fill:#4398D1;" width="64.586" height="17.647"/>
	
		<rect x="336.166" y="238.979" transform="matrix(-0.6088 0.7933 -0.7933 -0.6088 776.2333 174.9046)" style="fill:#4398D1;" width="17.655" height="79.712"/>
	<ellipse style="fill:#4398D1;" cx="256" cy="229.517" rx="88.276" ry="61.793"/>
</g>
<path style="fill:#FEC9A3;" d="M256,0L256,0c14.627,0,26.483,11.855,26.483,26.483v8.828c0,14.627-11.855,26.483-26.483,26.483l0,0
	c-14.627,0-26.483-11.855-26.483-26.483v-8.828C229.517,11.855,241.373,0,256,0z"/>
<path style="fill:#F0E4D6;" d="M220.69,61.793h70.621c19.5,0,35.31,15.81,35.31,35.31v52.966l0,0H185.379l0,0V97.103
	C185.379,77.603,201.19,61.793,220.69,61.793z"/>
<polygon style="fill:#266599;" points="308.966,229.517 203.034,229.517 220.69,203.034 220.69,150.069 291.31,150.069 
	291.31,203.034 "/>
<rect x="247.172" y="176.552" style="fill:#18588C;" width="17.655" height="52.966"/>
<g>
	<rect x="211.862" y="88.276" style="fill:#E0D2C1;" width="17.655" height="61.793"/>
	<rect x="282.483" y="88.276" style="fill:#E0D2C1;" width="17.655" height="61.793"/>
</g>
<ellipse style="fill:#4398D1;" cx="88.276" cy="450.207" rx="88.276" ry="61.793"/>
<path style="fill:#FEC9A3;" d="M88.276,220.69L88.276,220.69c14.627,0,26.483,11.855,26.483,26.483V256
	c0,14.627-11.855,26.483-26.483,26.483l0,0c-14.627,0-26.483-11.855-26.483-26.483v-8.828
	C61.793,232.545,73.649,220.69,88.276,220.69z"/>
<path style="fill:#F0E4D6;" d="M52.966,282.483h70.621c19.5,0,35.31,15.81,35.31,35.31v52.966l0,0H17.655l0,0v-52.966
	C17.655,298.293,33.465,282.483,52.966,282.483z"/>
<polygon style="fill:#266599;" points="141.241,450.207 35.31,450.207 52.966,423.724 52.966,370.759 123.586,370.759 
	123.586,423.724 "/>
<rect x="79.448" y="397.241" style="fill:#18588C;" width="17.655" height="52.966"/>
<g>
	<rect x="44.138" y="308.966" style="fill:#E0D2C1;" width="17.655" height="61.793"/>
	<rect x="114.759" y="308.966" style="fill:#E0D2C1;" width="17.655" height="61.793"/>
</g>
<ellipse style="fill:#4398D1;" cx="423.724" cy="450.207" rx="88.276" ry="61.793"/>
<path style="fill:#FEC9A3;" d="M423.724,220.69L423.724,220.69c14.627,0,26.483,11.855,26.483,26.483V256
	c0,14.627-11.855,26.483-26.483,26.483l0,0c-14.627,0-26.483-11.855-26.483-26.483v-8.828
	C397.241,232.545,409.097,220.69,423.724,220.69z"/>
<path style="fill:#F0E4D6;" d="M388.414,282.483h70.621c19.5,0,35.31,15.81,35.31,35.31v52.966l0,0H353.103l0,0v-52.966
	C353.103,298.293,368.914,282.483,388.414,282.483z"/>
<polygon style="fill:#266599;" points="476.69,450.207 370.759,450.207 388.414,423.724 388.414,370.759 459.034,370.759 
	459.034,423.724 "/>
<rect x="414.897" y="397.241" style="fill:#18588C;" width="17.655" height="52.966"/>
<g>
	<rect x="379.586" y="308.966" style="fill:#E0D2C1;" width="17.655" height="61.793"/>
	<rect x="450.207" y="308.966" style="fill:#E0D2C1;" width="17.655" height="61.793"/>
</g>
<g>
</g>
<g>
</g>
<g>
</g>
<g>
</g>
<g>
</g>
<g>
</g>
<g>
</g>
<g>
</g>
<g>
</g>
<g>
</g>
<g>
</g>
<g>
</g>
<g>
</g>
<g>
</g>
<g>
</g>
</svg>
