<?xml version="1.0" encoding="iso-8859-1"?>
<!-- Generator: Adobe Illustrator 19.0.0, SVG Export Plug-In . SVG Version: 6.00 Build 0)  -->
<svg version="1.1" id="Capa_1" xmlns="http://www.w3.org/2000/svg" xmlns:xlink="http://www.w3.org/1999/xlink" x="0px" y="0px"
	 viewBox="0 0 512.033 512.033" style="enable-background:new 0 0 512.033 512.033;" xml:space="preserve">
<g>
	<rect x="42.227" y="136.583" style="fill:#4398D1;" width="135.126" height="135.126"/>
	<rect x="8.445" y="161.919" style="fill:#4398D1;" width="33.781" height="84.454"/>
</g>
<polygon style="fill:#3F8FC4;" points="177.353,155.551 65.232,271.675 177.353,271.675 "/>
<path style="fill:#F0E4D6;" d="M405.377,18.314c-13.994,0-25.336,11.342-25.336,25.336v8.445l-202.689,84.454v135.126
	l202.689,84.454v8.445c0,13.994,11.342,25.336,25.336,25.336c13.994,0,25.336-11.342,25.336-25.336V43.65
	C430.713,29.656,419.371,18.314,405.377,18.314z"/>
<path style="fill:#EBDCCA;" d="M209.859,285.187l170.182,70.941v8.445c0,13.994,11.342,25.336,25.336,25.336
	c13.994,0,25.336-11.342,25.336-25.336V71.148C375.371,175.761,277.759,246.212,209.859,285.187z"/>
<path style="fill:#FEC9A3;" d="M185.57,460.31c1.571-9.197-4.62-17.921-13.817-19.492c-0.937-0.16-1.892-0.245-2.846-0.236
	c9.332,0,16.891-7.559,16.891-16.891s-7.559-16.891-16.891-16.891c9.332,0,16.891-7.559,16.891-16.891s-7.559-16.891-16.891-16.891
	h24.432c8.488,0.186,15.886-5.734,17.566-14.053c1.571-9.197-4.62-17.921-13.817-19.492c-0.937-0.16-1.892-0.245-2.846-0.236
	h-50.672c18.656,0,33.781-15.126,33.781-33.781H76.008l-50.672,33.781H0v135.126h168.004
	C176.491,474.549,183.889,468.629,185.57,460.31z"/>
<g>
	<polygon style="fill:#F0E4D6;" points="148.393,305.456 143.571,271.675 76.008,271.675 80.831,305.456 	"/>
	<polygon style="fill:#F0E4D6;" points="104.967,474.363 109.79,508.145 177.353,508.145 172.53,474.363 	"/>
</g>
<g>
	<rect x="67.563" y="161.919" style="fill:#3685BA;" width="16.891" height="25.336"/>
	<rect x="101.344" y="161.919" style="fill:#3685BA;" width="16.891" height="25.336"/>
	<rect x="135.126" y="161.919" style="fill:#3685BA;" width="16.891" height="25.336"/>
</g>
<g>
	
		<rect x="458.609" y="94.34" transform="matrix(-0.7807 0.6249 -0.6249 -0.7807 929.0235 -120.4524)" style="fill:#87CED9;" width="54.075" height="16.891"/>
	
		<rect x="457.484" y="18.306" transform="matrix(-0.7071 0.7071 -0.7071 -0.7071 840.6681 -294.7142)" style="fill:#87CED9;" width="47.775" height="16.891"/>
	
		<rect x="477.178" y="286.842" transform="matrix(-0.6247 0.7809 -0.7809 -0.6247 1034.0865 130.7434)" style="fill:#87CED9;" width="16.891" height="54.077"/>
	
		<rect x="472.953" y="366.039" transform="matrix(-0.7071 0.7071 -0.7071 -0.7071 1097.5173 325.2472)" style="fill:#87CED9;" width="16.891" height="47.775"/>
</g>
<path style="fill:#F5B789;" d="M152.016,347.683H109.79c-4.662,0-8.445-3.784-8.445-8.445c0-4.662,3.784-8.445,8.445-8.445h42.227
	c4.662,0,8.445,3.784,8.445,8.445C160.462,343.899,156.678,347.683,152.016,347.683z"/>
<g>
	<polygon style="fill:#E0D2C1;" points="498.276,229.448 430.713,246.338 430.713,161.885 498.276,178.776 	"/>
	<path style="fill:#E0D2C1;" d="M380.041,330.792c-4.662,0-8.445-3.784-8.445-8.445V52.095c0-4.662,3.784-8.445,8.445-8.445
		c4.662,0,8.445,3.784,8.445,8.445v270.252C388.487,327.009,384.703,330.792,380.041,330.792z"/>
</g>
<g>
</g>
<g>
</g>
<g>
</g>
<g>
</g>
<g>
</g>
<g>
</g>
<g>
</g>
<g>
</g>
<g>
</g>
<g>
</g>
<g>
</g>
<g>
</g>
<g>
</g>
<g>
</g>
<g>
</g>
</svg>
