<?xml version="1.0" encoding="iso-8859-1"?>
<!-- Generator: Adobe Illustrator 19.0.0, SVG Export Plug-In . SVG Version: 6.00 Build 0)  -->
<svg version="1.1" id="Capa_1" xmlns="http://www.w3.org/2000/svg" xmlns:xlink="http://www.w3.org/1999/xlink" x="0px" y="0px"
	 viewBox="0 0 512 512" style="enable-background:new 0 0 512 512;" xml:space="preserve">
<path style="fill:#79A125;" d="M317.793,326.621h-17.655l0,0l0,0c0-58.5,47.431-105.931,105.931-105.931h17.655l0,0l0,0
	C423.724,279.19,376.294,326.621,317.793,326.621z"/>
<circle style="fill:#F9B44D;" cx="300.138" cy="105.931" r="105.931"/>
<circle style="fill:#FA982F;" cx="300.138" cy="105.931" r="79.448"/>
<polygon style="fill:#F56B0F;" points="361.931,512 238.345,512 203.034,370.759 397.241,370.759 "/>
<g>
	<rect x="291.31" y="211.862" style="fill:#88B337;" width="17.655" height="158.897"/>
	<path style="fill:#88B337;" d="M176.552,220.69h17.655c58.5,0,105.931,47.431,105.931,105.931l0,0l0,0h-17.655
		C223.982,326.621,176.552,279.19,176.552,220.69L176.552,220.69L176.552,220.69z"/>
</g>
<g>
	<path style="fill:#F77219;" d="M361.931,105.931c-0.035,34.11-27.683,61.758-61.793,61.793v17.655
		c43.855-0.053,79.395-35.593,79.448-79.448H361.931z"/>
	<path style="fill:#F77219;" d="M300.138,26.483c-43.855,0.053-79.395,35.593-79.448,79.448h17.655
		c0.035-34.11,27.683-61.758,61.793-61.793V26.483z"/>
	<path style="fill:#F77219;" d="M308.966,158.897v-8.828h3.319c12.791-0.009,23.155-10.381,23.155-23.172
		c-0.009-11.317-8.183-20.966-19.341-22.837l-29.016-4.838c-3.001-0.486-5.041-3.31-4.555-6.321
		c0.424-2.666,2.737-4.626,5.438-4.626h24.294c3.037,0.009,5.5,2.472,5.508,5.508v3.319h17.655v-3.319
		c-0.018-12.774-10.364-23.137-23.137-23.164h-3.319v-8.828H291.31v8.828h-3.319c-12.791,0.009-23.155,10.381-23.155,23.172
		c0.009,11.317,8.183,20.966,19.341,22.837l29.016,4.838c3.001,0.486,5.041,3.31,4.555,6.321c-0.424,2.666-2.737,4.626-5.438,4.626
		h-24.32c-3.037-0.009-5.5-2.472-5.508-5.508v-3.319h-17.655v3.319c0.018,12.791,10.372,23.146,23.164,23.164h3.319v8.828H308.966z"
		/>
</g>
<path style="fill:#FDB62F;" d="M123.586,70.621L123.586,70.621c-3.019-18.105-17.205-32.291-35.31-35.31l0,0
	c18.105-3.019,32.291-17.205,35.31-35.31l0,0c3.019,18.105,17.205,32.291,35.31,35.31l0,0
	C140.791,38.329,126.605,52.515,123.586,70.621z"/>
<path style="fill:#E8650E;" d="M397.241,370.759h-43.043C334.354,424.934,301.55,473.423,258.648,512h103.283L397.241,370.759z"/>
<g>
</g>
<g>
</g>
<g>
</g>
<g>
</g>
<g>
</g>
<g>
</g>
<g>
</g>
<g>
</g>
<g>
</g>
<g>
</g>
<g>
</g>
<g>
</g>
<g>
</g>
<g>
</g>
<g>
</g>
</svg>
