<?xml version="1.0" encoding="iso-8859-1"?>
<!-- Generator: Adobe Illustrator 19.0.0, SVG Export Plug-In . SVG Version: 6.00 Build 0)  -->
<svg version="1.1" id="Capa_1" xmlns="http://www.w3.org/2000/svg" xmlns:xlink="http://www.w3.org/1999/xlink" x="0px" y="0px"
	 viewBox="0 0 512 512" style="enable-background:new 0 0 512 512;" xml:space="preserve">
<g>
	<polygon style="fill:#F0E4D6;" points="323.844,494.644 308.068,407.864 203.932,407.864 188.156,494.644 151.864,494.644 
		151.864,512 360.136,512 360.136,494.644 	"/>
	<path style="fill:#F0E4D6;" d="M4.339,373.153c0,19.17,15.542,34.712,34.712,34.712h433.898c19.17,0,34.712-15.542,34.712-34.712
		v-26.034H4.339V373.153z"/>
</g>
<path style="fill:#87CED9;" d="M472.949,0H39.051C19.881,0,4.339,15.542,4.339,34.712v312.407h503.322V34.712
	C507.661,15.542,492.119,0,472.949,0z"/>
<path style="fill:#7DC6D1;" d="M472.949,0h-43.867L75.655,347.119h432.007V34.712C507.661,15.542,492.119,0,472.949,0z"/>
<g>
	<path style="fill:#61ACC9;" d="M56.407,121.492c-14.379-0.061-26.086,11.55-26.138,25.93
		c-0.052,14.379,11.542,26.077,25.921,26.138c11.073,0.043,20.966-6.916,24.654-17.356h18.953v-17.356H80.844
		C77.182,128.486,67.402,121.535,56.407,121.492z M56.407,156.203c-4.79,0-8.678-3.888-8.678-8.678s3.888-8.678,8.678-8.678
		s8.678,3.888,8.678,8.678S61.197,156.203,56.407,156.203z"/>
	<path style="fill:#61ACC9;" d="M108.475,52.068H80.844c-4.79-13.555-19.664-20.662-33.219-15.863S26.962,55.869,31.753,69.424
		s19.664,20.662,33.219,15.863c7.42-2.621,13.251-8.452,15.872-15.863h24.038l14.813,14.813l12.271-12.271L114.61,54.61
		C112.987,52.979,110.774,52.068,108.475,52.068z M56.407,69.424c-4.79,0-8.678-3.888-8.678-8.678s3.888-8.678,8.678-8.678
		s8.678,3.888,8.678,8.678S61.197,69.424,56.407,69.424z"/>
	<path style="fill:#61ACC9;" d="M82.441,248.068l-14.883,14.874c-3.471-1.701-7.289-2.586-11.151-2.603
		c-14.379,0-26.034,11.655-26.034,26.034c0,14.379,11.655,26.034,26.034,26.034s26.034-11.654,26.034-26.034
		c-0.017-3.862-0.903-7.68-2.603-11.151l17.425-17.425c1.623-1.631,2.534-3.836,2.534-6.135v-43.39H82.441V248.068z M56.407,295.051
		c-4.79,0-8.678-3.888-8.678-8.678s3.888-8.678,8.678-8.678s8.678,3.888,8.678,8.678S61.197,295.051,56.407,295.051z"/>
	<path style="fill:#61ACC9;" d="M464.271,104.136V76.505c13.555-4.79,20.662-19.664,15.863-33.219
		c-4.799-13.555-19.664-20.662-33.219-15.872s-20.662,19.664-15.863,33.219c2.621,7.411,8.452,13.243,15.863,15.863v18.961h-34.712
		v17.356h43.39C460.383,112.814,464.271,108.926,464.271,104.136z M455.593,43.39c4.79,0,8.678,3.888,8.678,8.678
		s-3.888,8.678-8.678,8.678s-8.678-3.888-8.678-8.678S450.803,43.39,455.593,43.39z"/>
	<path style="fill:#61ACC9;" d="M455.593,147.525c-14.345-0.026-25.999,11.576-26.025,25.921
		c-0.017,11.038,6.934,20.879,17.347,24.55v15.36l-19.152,19.152l12.271,12.271l21.695-21.695c1.631-1.623,2.543-3.836,2.543-6.135
		v-18.953c13.529-4.764,20.636-19.595,15.872-33.124C476.472,154.459,466.632,147.508,455.593,147.525z M455.593,182.237
		c-4.79,0-8.678-3.888-8.678-8.678s3.888-8.678,8.678-8.678s8.678,3.888,8.678,8.678S460.383,182.237,455.593,182.237z"/>
	<path style="fill:#61ACC9;" d="M455.593,260.339c-10.995,0.043-20.775,6.994-24.437,17.356h-24.038l-19.152-19.152l-12.271,12.271
		l21.695,21.695c1.623,1.631,3.836,2.543,6.135,2.543h27.631c4.816,13.52,19.682,20.575,33.202,15.759
		c13.52-4.816,20.575-19.682,15.759-33.202C476.429,267.238,466.606,260.322,455.593,260.339z M455.593,295.051
		c-4.79,0-8.678-3.888-8.678-8.678s3.888-8.678,8.678-8.678s8.678,3.888,8.678,8.678S460.383,295.051,455.593,295.051z"/>
</g>
<polygon style="fill:#E0D2C1;" points="312.797,433.898 308.068,407.864 203.932,407.864 199.203,433.898 "/>
<path style="fill:#61ACC9;" d="M386.169,199.593v-52.068h-38.4c-2.005-7.133-4.842-13.998-8.444-20.471l12.149-12.149
	l-36.838-36.803l-12.149,12.149c-6.465-3.61-13.329-6.448-20.454-8.461v-38.4h-52.068v38.4c-7.133,2.005-13.998,4.842-20.471,8.444
	l-27.127-27.127l-36.821,36.821l27.145,27.127c-3.61,6.465-6.448,13.338-8.461,20.471h-38.4v52.068h38.4
	c2.005,7.133,4.842,13.998,8.444,20.471l-14.241,14.241l36.821,36.821l14.241-14.258c6.465,3.61,13.338,6.448,20.471,8.461v38.4
	h52.068v-38.4c7.133-2.005,13.998-4.842,20.471-8.444l27.127,27.127l36.821-36.821l-27.145-27.127
	c3.61-6.465,6.448-13.338,8.461-20.471H386.169z M256,225.627c-28.759,0-52.068-23.309-52.068-52.068s23.309-52.068,52.068-52.068
	s52.068,23.309,52.068,52.068S284.759,225.627,256,225.627z"/>
<path style="fill:#E8594A;" d="M381.535,74.058l-30.078,30.078l-26.034-26.034l30.078-30.078
	c-26.103-11.889-56.901-0.364-68.79,25.739c-5.016,11.021-6.031,23.448-2.864,35.128l-14.414,14.414l-63.688,63.688l-14.414,14.414
	c-27.726-7.463-56.251,8.964-63.714,36.699c-3.133,11.628-2.126,23.986,2.846,34.955l30.078-30.078l26.034,26.034l-30.078,30.078
	c26.103,11.889,56.901,0.364,68.79-25.739c5.016-11.021,6.031-23.448,2.864-35.128l14.414-14.414l63.688-63.688l14.414-14.414
	c27.726,7.463,56.251-8.964,63.714-36.699C387.515,97.384,386.508,85.027,381.535,74.058z"/>
<g>
</g>
<g>
</g>
<g>
</g>
<g>
</g>
<g>
</g>
<g>
</g>
<g>
</g>
<g>
</g>
<g>
</g>
<g>
</g>
<g>
</g>
<g>
</g>
<g>
</g>
<g>
</g>
<g>
</g>
</svg>
