<?xml version="1.0" encoding="iso-8859-1"?>
<!-- Generator: Adobe Illustrator 19.0.0, SVG Export Plug-In . SVG Version: 6.00 Build 0)  -->
<svg version="1.1" id="Capa_1" xmlns="http://www.w3.org/2000/svg" xmlns:xlink="http://www.w3.org/1999/xlink" x="0px" y="0px"
	 viewBox="0 0 512 512" style="enable-background:new 0 0 512 512;" xml:space="preserve">
<path style="fill:#FEC9A3;" d="M221.288,0L169.22,52.068v154.728c-0.312,14.223,10.466,26.26,24.637,27.509
	c14.353,0.772,26.624-10.24,27.396-24.602c0.026-0.477,0.035-0.955,0.035-1.432v-60.746c0-19.17,15.542-34.712,34.712-34.712l0,0
	c19.17,0,34.712,15.542,34.712,34.712v59.271c-0.312,14.223,10.466,26.26,24.637,27.509c14.353,0.772,26.624-10.24,27.396-24.602
	c0.026-0.477,0.035-0.955,0.035-1.432V0H221.288z"/>
<path style="fill:#F5B789;" d="M143.186,234.305L143.186,234.305c-14.379,0-26.034-11.655-26.034-26.034V104.136l52.068-52.068
	v156.203C169.22,222.651,157.566,234.305,143.186,234.305z"/>
<path style="fill:#E0A172;" d="M117.153,104.136l-61.336,60.746c-9.936,9.954-10.804,25.791-2.013,36.777l0,0
	c9.528,11.906,26.902,13.841,38.817,4.313c0.798-0.633,1.553-1.319,2.274-2.039l22.259-21.695V104.136z"/>
<path style="fill:#FEC9A3;" d="M73.763,242.983L73.763,242.983c19.17,0,34.712,15.542,34.712,34.712v17.356
	c0,19.17-15.542,34.712-34.712,34.712l0,0c-19.17,0-34.712-15.542-34.712-34.712v-17.356
	C39.051,258.525,54.593,242.983,73.763,242.983z"/>
<path style="fill:#4398D1;" d="M143.186,399.186v-43.39c0-14.379-11.655-26.034-26.034-26.034h-86.78
	c-14.379,0-26.034,11.654-26.034,26.034v43.39h34.712v95.458L30.373,512h86.78l-8.678-17.356v-95.458H143.186z"/>
<path style="fill:#3F8FC4;" d="M125.961,331.394c-19.916,43.529-49.664,81.833-86.91,111.902v51.348L30.373,512h86.78l-8.678-17.356
	v-95.458h34.712v-43.39C143.169,344.845,136.279,335.082,125.961,331.394z"/>
<rect x="65.085" y="425.22" style="fill:#3685BA;" width="17.356" height="86.78"/>
<g>
	<rect x="4.339" y="399.186" style="fill:#FEC9A3;" width="34.712" height="34.712"/>
	<rect x="108.475" y="399.186" style="fill:#FEC9A3;" width="34.712" height="34.712"/>
</g>
<g>
	<rect x="30.373" y="355.797" style="fill:#3685BA;" width="17.356" height="52.068"/>
	<rect x="99.797" y="355.797" style="fill:#3685BA;" width="17.356" height="52.068"/>
</g>
<path style="fill:#FEC9A3;" d="M256,173.559L256,173.559c19.17,0,34.712,15.542,34.712,34.712v17.356
	c0,19.17-15.542,34.712-34.712,34.712l0,0c-19.17,0-34.712-15.542-34.712-34.712v-17.356
	C221.288,189.102,236.83,173.559,256,173.559z"/>
<path style="fill:#4398D1;" d="M325.424,329.763v-43.39c0-14.379-11.655-26.034-26.034-26.034h-86.78
	c-14.379,0-26.034,11.655-26.034,26.034v43.39h34.712v95.458l-8.678,17.356h86.78l-8.678-17.356v-95.458H325.424z"/>
<path style="fill:#3F8FC4;" d="M308.198,261.97c-19.916,43.529-49.664,81.833-86.91,111.902v51.348l-8.678,17.356h86.78
	l-8.678-17.356v-95.458h34.712v-43.39C325.406,275.421,318.516,265.659,308.198,261.97z"/>
<rect x="247.322" y="355.797" style="fill:#3685BA;" width="17.356" height="86.78"/>
<g>
	<rect x="186.576" y="329.763" style="fill:#FEC9A3;" width="34.712" height="34.712"/>
	<rect x="290.712" y="329.763" style="fill:#FEC9A3;" width="34.712" height="34.712"/>
</g>
<g>
	<rect x="212.61" y="286.373" style="fill:#3685BA;" width="17.356" height="52.068"/>
	<rect x="282.034" y="286.373" style="fill:#3685BA;" width="17.356" height="52.068"/>
</g>
<path style="fill:#FEC9A3;" d="M438.237,242.983L438.237,242.983c19.17,0,34.712,15.542,34.712,34.712v17.356
	c0,19.17-15.542,34.712-34.712,34.712l0,0c-19.17,0-34.712-15.542-34.712-34.712v-17.356
	C403.525,258.525,419.068,242.983,438.237,242.983z"/>
<path style="fill:#4398D1;" d="M507.661,399.186v-43.39c0-14.379-11.654-26.034-26.034-26.034h-86.78
	c-14.379,0-26.034,11.654-26.034,26.034v43.39h34.712v95.458L394.847,512h86.78l-8.678-17.356v-95.458H507.661z"/>
<path style="fill:#3F8FC4;" d="M490.435,331.394c-19.916,43.529-49.664,81.833-86.91,111.902v51.348L394.847,512h86.78
	l-8.678-17.356v-95.458h34.712v-43.39C507.644,344.845,500.753,335.082,490.435,331.394z"/>
<rect x="429.559" y="425.22" style="fill:#3685BA;" width="17.356" height="86.78"/>
<g>
	<rect x="368.814" y="399.186" style="fill:#FEC9A3;" width="34.712" height="34.712"/>
	<rect x="472.949" y="399.186" style="fill:#FEC9A3;" width="34.712" height="34.712"/>
</g>
<g>
	<rect x="394.847" y="355.797" style="fill:#3685BA;" width="17.356" height="52.068"/>
	<rect x="464.271" y="355.797" style="fill:#3685BA;" width="17.356" height="52.068"/>
</g>
<g>
</g>
<g>
</g>
<g>
</g>
<g>
</g>
<g>
</g>
<g>
</g>
<g>
</g>
<g>
</g>
<g>
</g>
<g>
</g>
<g>
</g>
<g>
</g>
<g>
</g>
<g>
</g>
<g>
</g>
</svg>
