<?xml version="1.0" encoding="iso-8859-1"?>
<!-- Generator: Adobe Illustrator 19.0.0, SVG Export Plug-In . SVG Version: 6.00 Build 0)  -->
<svg version="1.1" id="Capa_1" xmlns="http://www.w3.org/2000/svg" xmlns:xlink="http://www.w3.org/1999/xlink" x="0px" y="0px"
	 viewBox="0 0 512 512" style="enable-background:new 0 0 512 512;" xml:space="preserve">
<path style="fill:#4398D1;" d="M420.881,242.983H264.678v-26.034h-17.356v26.034H91.119c-4.79,0-8.678,3.888-8.678,8.678v34.712
	h17.356v-26.034h312.407v26.034h17.356v-34.712C429.559,246.871,425.672,242.983,420.881,242.983z"/>
<path style="fill:#F0E4D6;" d="M308.068,104.136H203.932c-19.17,0-34.712,15.542-34.712,34.712v60.746H342.78v-60.746
	C342.78,119.678,327.237,104.136,308.068,104.136z"/>
<path style="fill:#EBDCCA;" d="M322.3,107.26l-92.334,92.334H342.78v-60.746C342.762,125.206,334.744,112.84,322.3,107.26z"/>
<rect x="247.322" y="104.136" style="fill:#4398D1;" width="17.356" height="95.458"/>
<path style="fill:#FEC9A3;" d="M256,0L256,0c23.96,0,43.39,19.43,43.39,43.39v17.356c0,23.96-19.43,43.39-43.39,43.39l0,0
	c-23.96,0-43.39-19.43-43.39-43.39V43.39C212.61,19.43,232.04,0,256,0z"/>
<g>
	<rect x="195.254" y="147.525" style="fill:#E0D2C1;" width="17.356" height="52.068"/>
	<rect x="299.39" y="147.525" style="fill:#E0D2C1;" width="17.356" height="52.068"/>
</g>
<path style="fill:#F0E4D6;" d="M143.186,416.542H39.051c-19.17,0-34.712,15.542-34.712,34.712V512h173.559v-60.746
	C177.898,432.085,162.356,416.542,143.186,416.542z"/>
<path style="fill:#EBDCCA;" d="M157.418,419.666L65.085,512h112.814v-60.746C177.881,437.612,169.863,425.246,157.418,419.666z"/>
<rect x="82.441" y="416.542" style="fill:#4398D1;" width="17.356" height="95.458"/>
<path style="fill:#FEC9A3;" d="M91.119,312.407L91.119,312.407c23.96,0,43.39,19.43,43.39,43.39v17.356
	c0,23.96-19.43,43.39-43.39,43.39l0,0c-23.96,0-43.39-19.43-43.39-43.39v-17.356C47.729,331.837,67.159,312.407,91.119,312.407z"/>
<g>
	<rect x="30.373" y="459.932" style="fill:#E0D2C1;" width="17.356" height="52.068"/>
	<rect x="134.508" y="459.932" style="fill:#E0D2C1;" width="17.356" height="52.068"/>
</g>
<path style="fill:#F0E4D6;" d="M472.949,416.542H368.814c-19.17,0-34.712,15.542-34.712,34.712V512h173.559v-60.746
	C507.661,432.085,492.119,416.542,472.949,416.542z"/>
<path style="fill:#EBDCCA;" d="M487.181,419.666L394.847,512h112.814v-60.746C507.644,437.612,499.625,425.246,487.181,419.666z"/>
<rect x="412.203" y="416.542" style="fill:#4398D1;" width="17.356" height="95.458"/>
<path style="fill:#FEC9A3;" d="M420.881,312.407L420.881,312.407c23.96,0,43.39,19.43,43.39,43.39v17.356
	c0,23.96-19.43,43.39-43.39,43.39l0,0c-23.96,0-43.39-19.43-43.39-43.39v-17.356C377.492,331.837,396.921,312.407,420.881,312.407z"
	/>
<g>
	<rect x="360.136" y="459.932" style="fill:#E0D2C1;" width="17.356" height="52.068"/>
	<rect x="464.271" y="459.932" style="fill:#E0D2C1;" width="17.356" height="52.068"/>
</g>
<g>
</g>
<g>
</g>
<g>
</g>
<g>
</g>
<g>
</g>
<g>
</g>
<g>
</g>
<g>
</g>
<g>
</g>
<g>
</g>
<g>
</g>
<g>
</g>
<g>
</g>
<g>
</g>
<g>
</g>
</svg>
