<?xml version="1.0" encoding="iso-8859-1"?>
<!-- Generator: Adobe Illustrator 19.0.0, SVG Export Plug-In . SVG Version: 6.00 Build 0)  -->
<svg version="1.1" id="Capa_1" xmlns="http://www.w3.org/2000/svg" xmlns:xlink="http://www.w3.org/1999/xlink" x="0px" y="0px"
	 viewBox="0 0 512.001 512.001" style="enable-background:new 0 0 512.001 512.001;" xml:space="preserve">
<path style="fill:#87CED9;" d="M469.334,110.934c0-18.85-15.283-34.133-34.133-34.133H76.8c-18.85,0-34.133,15.283-34.133,34.133
	v238.933h426.667V110.934z"/>
<path style="fill:#7DC6D1;" d="M439.075,77.193L166.4,349.868h302.933V110.934C469.3,93.629,456.278,79.105,439.075,77.193z"/>
<g>
	<polygon style="fill:#F0E4D6;" points="329.959,494.934 298.667,401.068 213.334,401.068 182.042,494.934 145.067,494.934 
		145.067,512.001 366.934,512.001 366.934,494.934 	"/>
	<path style="fill:#F0E4D6;" d="M42.667,349.868v17.067c0,18.85,15.283,34.133,34.133,34.133h358.4
		c18.85,0,34.133-15.283,34.133-34.133v-17.067H42.667z"/>
</g>
<g>
	<rect x="204.8" y="273.068" style="fill:#FA962A;" width="51.2" height="34.133"/>
	<rect x="204.8" y="204.801" style="fill:#FA962A;" width="51.2" height="34.133"/>
	<rect x="290.134" y="273.068" style="fill:#FA962A;" width="51.2" height="34.133"/>
	<rect x="290.134" y="204.801" style="fill:#FA962A;" width="51.2" height="34.133"/>
	<rect x="375.467" y="273.068" style="fill:#FA962A;" width="51.2" height="34.133"/>
	<rect x="375.467" y="204.801" style="fill:#FA962A;" width="51.2" height="34.133"/>
</g>
<g>
	<rect x="119.467" y="273.068" style="fill:#FDB62F;" width="51.2" height="34.133"/>
	<rect x="204.8" y="238.934" style="fill:#FDB62F;" width="51.2" height="34.133"/>
	<rect x="290.134" y="238.934" style="fill:#FDB62F;" width="51.2" height="34.133"/>
	<rect x="290.134" y="170.668" style="fill:#FDB62F;" width="51.2" height="34.133"/>
	<rect x="375.467" y="238.934" style="fill:#FDB62F;" width="51.2" height="34.133"/>
	<rect x="375.467" y="170.668" style="fill:#FDB62F;" width="51.2" height="34.133"/>
</g>
<rect x="375.467" y="136.534" style="fill:#FA962A;" width="51.2" height="34.133"/>
<g>
	<rect x="76.8" y="298.668" style="fill:#59B3C2;" width="358.4" height="17.067"/>
	<rect x="76.8" y="196.268" style="fill:#59B3C2;" width="17.067" height="17.067"/>
	<rect x="76.8" y="230.401" style="fill:#59B3C2;" width="17.067" height="17.067"/>
	<rect x="76.8" y="264.534" style="fill:#59B3C2;" width="17.067" height="17.067"/>
	<rect x="76.8" y="162.134" style="fill:#59B3C2;" width="17.067" height="17.067"/>
	<rect x="76.8" y="128.001" style="fill:#59B3C2;" width="17.067" height="17.067"/>
</g>
<g>
	<path style="fill:#88B337;" d="M144.214,234.215l-15.275-7.629l34.133-68.267c1.724-3.439,5.53-5.299,9.301-4.548l38.187,7.637
		l47.974-47.974c2.287-2.287,5.666-3.089,8.73-2.065l45.022,15.01L393.967,3.798l14.199,9.472l-85.333,128
		c-2.133,3.2-6.144,4.574-9.796,3.362l-46.191-15.403l-47.479,47.471c-2.014,2.005-4.89,2.884-7.68,2.33l-36.275-7.253
		L144.214,234.215z"/>
	<path style="fill:#88B337;" d="M401.323,44.741l-6.468-25.856l-25.856,6.46l-4.13-16.555l34.133-8.533
		c4.565-1.143,9.199,1.638,10.342,6.204l8.533,34.133L401.323,44.741z"/>
</g>
<polygon style="fill:#E0D2C1;" points="298.667,401.068 213.334,401.068 204.8,426.668 307.2,426.668 "/>
<g>
</g>
<g>
</g>
<g>
</g>
<g>
</g>
<g>
</g>
<g>
</g>
<g>
</g>
<g>
</g>
<g>
</g>
<g>
</g>
<g>
</g>
<g>
</g>
<g>
</g>
<g>
</g>
<g>
</g>
</svg>
