<?xml version="1.0" encoding="iso-8859-1"?>
<!-- Generator: Adobe Illustrator 19.0.0, SVG Export Plug-In . SVG Version: 6.00 Build 0)  -->
<svg version="1.1" id="Capa_1" xmlns="http://www.w3.org/2000/svg" xmlns:xlink="http://www.w3.org/1999/xlink" x="0px" y="0px"
	 viewBox="0 0 512 512" style="enable-background:new 0 0 512 512;" xml:space="preserve">
<circle style="fill:#F9B44D;" cx="260.339" cy="173.559" r="104.136"/>
<circle style="fill:#FA982F;" cx="260.339" cy="173.559" r="69.424"/>
<g>
	<path style="fill:#F77219;" d="M321.085,173.559c-0.035,33.532-27.214,60.711-60.746,60.746v17.356
		c43.112-0.052,78.05-34.99,78.102-78.102H321.085z"/>
	<path style="fill:#F77219;" d="M260.339,95.458c-43.112,0.052-78.05,34.99-78.102,78.102h17.356
		c0.035-33.532,27.214-60.711,60.746-60.746V95.458z"/>
	<path style="fill:#F77219;" d="M269.017,225.627v-8.678h3.263c12.574,0.017,22.788-10.162,22.806-22.736
		c0.017-11.16-8.053-20.688-19.065-22.502l-28.507-4.747c-2.951-0.477-4.955-3.254-4.478-6.213c0.417-2.621,2.69-4.547,5.346-4.547
		h23.882c2.985,0.009,5.406,2.43,5.415,5.415v3.263h17.356v-3.263c-0.017-12.566-10.188-22.745-22.754-22.771h-3.263v-8.678h-17.356
		v8.678h-3.263c-12.574-0.017-22.788,10.162-22.806,22.736c-0.017,11.16,8.053,20.688,19.066,22.502l28.507,4.747
		c2.951,0.477,4.955,3.254,4.478,6.213c-0.417,2.621-2.69,4.547-5.346,4.547h-23.899c-2.985-0.009-5.406-2.43-5.415-5.415v-3.263
		h-17.356v3.263c0.017,12.574,10.197,22.754,22.771,22.771h3.263v8.678H269.017z"/>
</g>
<g>
	<rect x="312.407" y="34.712" style="fill:#87CED9;" width="17.356" height="104.136"/>
	<rect x="312.407" y="0" style="fill:#87CED9;" width="17.356" height="17.356"/>
	<rect x="234.305" y="0" style="fill:#87CED9;" width="17.356" height="69.424"/>
	<rect x="199.593" y="52.068" style="fill:#87CED9;" width="17.356" height="26.034"/>
	<rect x="199.593" y="17.356" style="fill:#87CED9;" width="17.356" height="17.356"/>
	<rect x="347.119" y="60.746" style="fill:#87CED9;" width="17.356" height="69.424"/>
	<rect x="156.203" y="34.712" style="fill:#87CED9;" width="17.356" height="95.458"/>
</g>
<path style="fill:#F9B44D;" d="M425.22,95.458L425.22,95.458c-2.968-17.799-16.913-31.744-34.712-34.712l0,0
	c17.798-2.968,31.744-16.913,34.712-34.712l0,0c2.968,17.799,16.913,31.744,34.712,34.712l0,0
	C442.134,63.714,428.188,77.659,425.22,95.458z"/>
<path style="fill:#FEC9A3;" d="M364.475,425.22h-30.373c16.775,0,30.373-13.598,30.373-30.373l0,0l0,0
	c0-16.775-13.598-30.373-30.373-30.373h-99.797c-34.955-29.965-86.537-29.965-121.492,0l0,0V512h221.965
	c13.703,0,27.101-4.061,38.504-11.663l126.369-84.246c7.715-5.137,12.349-13.798,12.349-23.066v-0.781
	c0.026-15.308-12.357-27.743-27.665-27.77c-0.017,0-0.043,0-0.061,0l0,0c-4.591,0-9.103,1.137-13.138,3.315L364.475,425.22z"/>
<rect y="364.475" style="fill:#4398D1;" width="112.814" height="147.525"/>
<rect y="425.22" style="fill:#3F8FC4;" width="112.814" height="86.78"/>
<circle style="fill:#18588C;" cx="60.746" cy="459.932" r="17.356"/>
<path style="fill:#F5B789;" d="M334.102,433.898h-91.119c-4.79,0-8.678-3.888-8.678-8.678s3.888-8.678,8.678-8.678h91.119
	c4.79,0,8.678,3.888,8.678,8.678S338.892,433.898,334.102,433.898z"/>
<g>
</g>
<g>
</g>
<g>
</g>
<g>
</g>
<g>
</g>
<g>
</g>
<g>
</g>
<g>
</g>
<g>
</g>
<g>
</g>
<g>
</g>
<g>
</g>
<g>
</g>
<g>
</g>
<g>
</g>
</svg>
