<?xml version="1.0" encoding="iso-8859-1"?>
<!-- Generator: Adobe Illustrator 19.0.0, SVG Export Plug-In . SVG Version: 6.00 Build 0)  -->
<svg version="1.1" id="Capa_1" xmlns="http://www.w3.org/2000/svg" xmlns:xlink="http://www.w3.org/1999/xlink" x="0px" y="0px"
	 viewBox="0 0 512 512" style="enable-background:new 0 0 512 512;" xml:space="preserve">
<path style="fill:#E8594A;" d="M286.895,220.69v-52.966c0-24.373-19.765-44.138-44.138-44.138h-97.103
	c-29.255,0-52.966,23.711-52.966,52.966v123.586h150.069v-35.31h79.448V220.69H286.895z"/>
<path style="fill:#D65245;" d="M286.895,220.69v-52.966c-0.018-20.524-14.204-38.321-34.207-42.92
	c-28.654,106.364-79.395,153.591-110.742,175.334h100.811v-35.31h79.448V220.69H286.895z"/>
<polygon style="fill:#4398D1;" points="242.757,485.517 242.757,300.138 189.792,300.138 136.826,300.138 136.826,485.517 
	119.171,512 189.792,512 260.412,512 "/>
<g>
	<rect x="92.688" y="300.138" style="fill:#FEC9A3;" width="44.138" height="35.31"/>
	<rect x="322.205" y="220.69" style="fill:#FEC9A3;" width="52.966" height="44.138"/>
</g>
<rect x="180.964" y="326.621" style="fill:#3685BA;" width="17.655" height="185.379"/>
<circle style="fill:#61ACC9;" cx="348.688" cy="335.448" r="70.621"/>
<path style="fill:#FEC9A3;" d="M189.792,0L189.792,0c19.5,0,35.31,15.81,35.31,35.31v17.655c0,19.5-15.81,35.31-35.31,35.31l0,0
	c-19.5,0-35.31-15.81-35.31-35.31V35.31C154.481,15.81,170.291,0,189.792,0z"/>
<g>
	<rect x="127.999" y="185.379" style="fill:#C44639;" width="17.655" height="114.759"/>
	<rect x="233.93" y="185.379" style="fill:#C44639;" width="17.655" height="79.448"/>
</g>
<polygon style="fill:#61ACC9;" points="339.861,220.69 313.378,185.379 383.999,185.379 357.516,220.69 "/>
<path style="fill:#5A9FBA;" d="M401.654,288.821c-17.655,65.977-57.379,94.844-88.744,107.432
	c33.545,19.809,76.8,8.669,96.609-24.885C425.047,345.053,421.878,311.729,401.654,288.821z"/>
<path style="fill:#266599;" d="M341.944,317.793h33.227v-17.655h-17.655v-8.828h-17.655v9.039
	c-10.805,1.103-18.67,10.761-17.567,21.566c0.689,6.718,4.776,12.615,10.823,15.616l23.243,11.626
	c0.706,0.344,1.156,1.068,1.156,1.863c0,1.148-0.936,2.083-2.083,2.083l0,0h-33.227v17.655h17.655v8.828h17.655v-9.039
	c10.805-1.103,18.67-10.761,17.567-21.566c-0.689-6.718-4.776-12.615-10.823-15.616l-23.243-11.626
	c-0.706-0.344-1.156-1.068-1.156-1.863C339.861,318.729,340.787,317.793,341.944,317.793L341.944,317.793z"/>
<g>
</g>
<g>
</g>
<g>
</g>
<g>
</g>
<g>
</g>
<g>
</g>
<g>
</g>
<g>
</g>
<g>
</g>
<g>
</g>
<g>
</g>
<g>
</g>
<g>
</g>
<g>
</g>
<g>
</g>
</svg>
