<?xml version="1.0" encoding="iso-8859-1"?>
<!-- Generator: Adobe Illustrator 19.0.0, SVG Export Plug-In . SVG Version: 6.00 Build 0)  -->
<svg version="1.1" id="Capa_1" xmlns="http://www.w3.org/2000/svg" xmlns:xlink="http://www.w3.org/1999/xlink" x="0px" y="0px"
	 viewBox="0 0 512 512" style="enable-background:new 0 0 512 512;" xml:space="preserve">
<path style="fill:#87CED9;" d="M370.759,512H105.931c-29.255,0-52.966-23.711-52.966-52.966l0,0v-70.621H0
	c0,0,55.128-153.715,59.145-167.724c19.677-67.99,81.938-114.776,152.717-114.759l0,0c87.755,0,158.897,71.142,158.897,158.897V512z
	"/>
<path style="fill:#7DC6D1;" d="M119.322,512h251.436V264.828c0.035-37.5-13.259-73.79-37.508-102.4
	C273.655,380.61,180.648,473.388,119.322,512z"/>
<g>
	<circle style="fill:#61ACC9;" cx="114.759" cy="291.31" r="26.483"/>
	<path style="fill:#61ACC9;" d="M231.627,512h-19.253v-17.655h19.253c11.185-0.018,21.16-7.044,24.938-17.576l35.769-100.149
		l16.631,5.932L273.196,482.71C266.902,500.259,250.271,511.974,231.627,512z"/>
	<rect x="52.966" y="414.897" style="fill:#61ACC9;" width="52.966" height="17.655"/>
</g>
<path style="fill:#E8594A;" d="M512,211.862v-70.621h-49.046c-2.878-10.443-7.027-20.48-12.359-29.908l34.657-34.657l-49.929-49.938
	l-34.657,34.657c-9.428-5.332-19.465-9.481-29.908-12.35V0h-70.621v49.046c-6.02,1.66-11.926,3.743-17.655,6.232
	c-4.193,1.818-8.28,3.866-12.253,6.118l-34.657-34.657l-49.938,49.938l34.657,34.657c-2.251,3.972-4.299,8.06-6.118,12.253
	c-2.489,5.729-4.573,11.635-6.232,17.655h-49.046v70.621h49.046c2.878,10.443,7.027,20.48,12.359,29.908l-34.657,34.657
	l49.938,49.938l34.657-34.657c3.972,2.251,8.06,4.299,12.244,6.118c5.729,2.489,11.635,4.573,17.655,6.232v49.046h70.621v-49.046
	c10.443-2.878,20.48-7.027,29.908-12.359l34.657,34.657l49.938-49.938l-34.657-34.657c5.332-9.419,9.481-19.465,12.35-29.899
	L512,211.862L512,211.862z M335.448,211.862c-19.5,0-35.31-15.81-35.31-35.31s15.81-35.31,35.31-35.31s35.31,15.81,35.31,35.31
	S354.948,211.862,335.448,211.862z"/>
<path style="fill:#DE5547;" d="M450.604,111.334l34.657-34.657l-24.973-24.964l-99.875,99.875
	c14.027,13.55,14.415,35.902,0.865,49.929c-13.55,14.027-35.902,14.415-49.929,0.865c-0.291-0.282-0.583-0.574-0.865-0.865
	l-99.875,99.875l24.964,24.973l34.657-34.657c3.972,2.251,8.06,4.299,12.253,6.118c5.729,2.489,11.635,4.573,17.655,6.232v49.046
	h70.621v-49.046c10.443-2.878,20.48-7.027,29.908-12.359l34.657,34.657l49.938-49.938l-34.657-34.657
	c5.332-9.419,9.481-19.465,12.35-29.899H512v-70.621h-49.046C460.085,130.798,455.936,120.761,450.604,111.334z"/>
<path style="fill:#D65245;" d="M335.448,273.655c-53.628,0-97.103-43.476-97.103-97.103s43.476-97.103,97.103-97.103
	s97.103,43.476,97.103,97.103C432.49,230.153,389.049,273.593,335.448,273.655z M335.448,97.103
	c-43.882,0-79.448,35.566-79.448,79.448S291.566,256,335.448,256s79.448-35.566,79.448-79.448
	C414.844,132.696,379.304,97.156,335.448,97.103z"/>
<g>
</g>
<g>
</g>
<g>
</g>
<g>
</g>
<g>
</g>
<g>
</g>
<g>
</g>
<g>
</g>
<g>
</g>
<g>
</g>
<g>
</g>
<g>
</g>
<g>
</g>
<g>
</g>
<g>
</g>
</svg>
