<?xml version="1.0" encoding="iso-8859-1"?>
<!-- Generator: Adobe Illustrator 19.0.0, SVG Export Plug-In . SVG Version: 6.00 Build 0)  -->
<svg version="1.1" id="Capa_1" xmlns="http://www.w3.org/2000/svg" xmlns:xlink="http://www.w3.org/1999/xlink" x="0px" y="0px"
	 viewBox="0 0 512 512" style="enable-background:new 0 0 512 512;" xml:space="preserve">
<path style="fill:#87CED9;" d="M326.621,105.931h-88.276c-29.255,0-52.966,23.711-52.966,52.966v105.931h44.138v35.31h105.931
	v-35.31h44.138V158.897C379.586,129.642,355.875,105.931,326.621,105.931z"/>
<rect x="273.655" y="105.931" style="fill:#1F507A;" width="17.655" height="97.103"/>
<path style="fill:#FEC9A3;" d="M282.483,0L282.483,0c19.5,0,35.31,15.81,35.31,35.31v35.31c0,19.5-15.81,35.31-35.31,35.31l0,0
	c-19.5,0-35.31-15.81-35.31-35.31V35.31C247.172,15.81,262.983,0,282.483,0z"/>
<path style="fill:#F9B44D;" d="M291.31,0h-52.965c0,14.627,11.855,26.483,26.483,26.483h52.966C317.793,11.855,305.938,0,291.31,0z"
	/>
<g>
	<path style="fill:#266599;" d="M326.621,105.931l-44.138,88.276l-44.138-88.276c-29.255,0-52.966,23.711-52.966,52.966v105.931
		h44.138v35.31h105.931v-35.31h44.138V158.897C379.586,129.642,355.875,105.931,326.621,105.931z"/>
	<polygon style="fill:#266599;" points="335.448,485.517 335.448,300.138 282.483,300.138 229.517,300.138 229.517,485.517 
		211.862,512 282.483,512 353.103,512 	"/>
</g>
<g>
	<rect x="185.379" y="264.828" style="fill:#FEC9A3;" width="44.138" height="35.31"/>
	<rect x="335.448" y="264.828" style="fill:#FEC9A3;" width="44.138" height="35.31"/>
</g>
<g>
	<rect x="273.655" y="326.621" style="fill:#18588C;" width="17.655" height="185.379"/>
	<rect x="220.69" y="176.552" style="fill:#18588C;" width="17.655" height="88.276"/>
	<rect x="326.621" y="176.552" style="fill:#18588C;" width="17.655" height="88.276"/>
</g>
<polygon style="fill:#824A24;" points="132.414,335.448 132.414,397.241 282.483,397.241 282.483,335.448 203.034,353.103 "/>
<polygon style="fill:#91562F;" points="132.414,300.138 132.414,335.448 203.034,353.103 282.483,335.448 282.483,300.138 "/>
<g>
	<rect x="273.655" y="220.69" style="fill:#1F507A;" width="17.655" height="17.655"/>
	<rect x="273.655" y="256" style="fill:#1F507A;" width="17.655" height="17.655"/>
</g>
<g>
</g>
<g>
</g>
<g>
</g>
<g>
</g>
<g>
</g>
<g>
</g>
<g>
</g>
<g>
</g>
<g>
</g>
<g>
</g>
<g>
</g>
<g>
</g>
<g>
</g>
<g>
</g>
<g>
</g>
</svg>
