<?xml version="1.0" encoding="iso-8859-1"?>
<!-- Generator: Adobe Illustrator 19.0.0, SVG Export Plug-In . SVG Version: 6.00 Build 0)  -->
<svg version="1.1" id="Capa_1" xmlns="http://www.w3.org/2000/svg" xmlns:xlink="http://www.w3.org/1999/xlink" x="0px" y="0px"
	 viewBox="0 0 512 512" style="enable-background:new 0 0 512 512;" xml:space="preserve">
<rect x="8.533" y="25.6" style="fill:#4398D1;" width="494.933" height="307.2"/>
<polygon style="fill:#3F8FC4;" points="98.133,332.8 503.467,332.8 503.467,25.6 405.333,25.6 "/>
<rect x="230.4" y="332.8" style="fill:#E0D2C1;" width="51.2" height="179.2"/>
<rect x="230.4" y="332.8" style="fill:#CCBFB0;" width="51.2" height="59.733"/>
<g>
	<path style="fill:#18588C;" d="M503.467,375.467H8.533c-4.71,0-8.533-3.823-8.533-8.533V332.8c0-4.71,3.823-8.533,8.533-8.533
		h494.933c4.71,0,8.533,3.823,8.533,8.533v34.133C512,371.644,508.177,375.467,503.467,375.467z M17.067,358.4h477.867v-17.067
		H17.067V358.4z"/>
	<rect x="85.333" y="332.8" style="fill:#18588C;" width="17.067" height="34.133"/>
	<rect x="34.133" y="332.8" style="fill:#18588C;" width="17.067" height="34.133"/>
	<rect x="136.533" y="332.8" style="fill:#18588C;" width="17.067" height="34.133"/>
	<rect x="187.733" y="332.8" style="fill:#18588C;" width="17.067" height="34.133"/>
	<rect x="221.867" y="332.8" style="fill:#18588C;" width="17.067" height="34.133"/>
	<rect x="409.6" y="332.8" style="fill:#18588C;" width="17.067" height="34.133"/>
	<rect x="358.4" y="332.8" style="fill:#18588C;" width="17.067" height="34.133"/>
	<rect x="307.2" y="332.8" style="fill:#18588C;" width="17.067" height="34.133"/>
	<path style="fill:#18588C;" d="M230.4,512h-34.133c-4.71,0-8.533-3.823-8.533-8.533V332.8c0-4.71,3.823-8.533,8.533-8.533H230.4
		c4.71,0,8.533,3.823,8.533,8.533v170.667C238.933,508.177,235.11,512,230.4,512z M204.8,494.933h17.067v-153.6H204.8V494.933z"/>
	<rect x="196.267" y="392.533" style="fill:#18588C;" width="42.667" height="17.067"/>
	<rect x="196.267" y="426.667" style="fill:#18588C;" width="34.133" height="17.067"/>
	<rect x="196.267" y="460.8" style="fill:#18588C;" width="34.133" height="17.067"/>
	<rect x="460.8" y="332.8" style="fill:#18588C;" width="17.067" height="34.133"/>
</g>
<g>
	<rect x="230.4" y="25.6" style="fill:#E0D2C1;" width="51.2" height="34.133"/>
	<rect x="247.467" style="fill:#E0D2C1;" width="17.067" height="25.6"/>
	<rect x="76.8" y="25.6" style="fill:#E0D2C1;" width="51.2" height="34.133"/>
	<rect x="93.867" style="fill:#E0D2C1;" width="17.067" height="25.6"/>
	<rect x="384" y="25.6" style="fill:#E0D2C1;" width="51.2" height="34.133"/>
	<rect x="401.067" style="fill:#E0D2C1;" width="17.067" height="25.6"/>
</g>
<g>
	<rect x="93.867" y="128" style="fill:#3685BA;" width="324.267" height="17.067"/>
	<rect x="145.067" y="179.2" style="fill:#3685BA;" width="221.867" height="17.067"/>
	<rect x="179.2" y="230.4" style="fill:#3685BA;" width="153.6" height="17.067"/>
	<rect x="34.133" y="290.133" style="fill:#3685BA;" width="59.733" height="17.067"/>
	<rect x="34.133" y="256" style="fill:#3685BA;" width="59.733" height="17.067"/>
	<rect x="384" y="290.133" style="fill:#3685BA;" width="17.067" height="17.067"/>
	<rect x="418.133" y="290.133" style="fill:#3685BA;" width="59.733" height="17.067"/>
</g>
<g>
</g>
<g>
</g>
<g>
</g>
<g>
</g>
<g>
</g>
<g>
</g>
<g>
</g>
<g>
</g>
<g>
</g>
<g>
</g>
<g>
</g>
<g>
</g>
<g>
</g>
<g>
</g>
<g>
</g>
</svg>
