<?xml version="1.0" encoding="iso-8859-1"?>
<!-- Generator: Adobe Illustrator 19.0.0, SVG Export Plug-In . SVG Version: 6.00 Build 0)  -->
<svg version="1.1" id="Capa_1" xmlns="http://www.w3.org/2000/svg" xmlns:xlink="http://www.w3.org/1999/xlink" x="0px" y="0px"
	 viewBox="0 0 512 512" style="enable-background:new 0 0 512 512;" xml:space="preserve">
<g>
	<rect x="47.729" y="138.847" style="fill:#4398D1;" width="164.881" height="17.356"/>
	
		<rect x="186.571" y="11.271" transform="matrix(-0.7926 0.6097 -0.6097 -0.7926 400.2668 28.724)" style="fill:#4398D1;" width="17.355" height="142.324"/>
	
		<rect x="262.867" y="78.103" transform="matrix(-0.8321 0.5547 -0.5547 -0.8321 644.3743 -21.5284)" style="fill:#4398D1;" width="125.159" height="17.357"/>
	
		<rect x="368.705" y="94.53" transform="matrix(-0.33 0.944 -0.944 -0.33 677.947 -108.233)" style="fill:#4398D1;" width="17.356" height="183.889"/>
	
		<rect x="-0.081" y="225.614" transform="matrix(-0.7809 0.6246 -0.6246 -0.7809 393.6234 330.5284)" style="fill:#4398D1;" width="277.859" height="17.355"/>
	<circle style="fill:#4398D1;" cx="39.051" cy="147.525" r="34.712"/>
	<circle style="fill:#4398D1;" cx="403.525" cy="34.712" r="34.712"/>
	<circle style="fill:#4398D1;" cx="472.949" cy="216.949" r="34.712"/>
	<circle style="fill:#4398D1;" cx="151.864" cy="34.712" r="34.712"/>
	<circle style="fill:#4398D1;" cx="39.051" cy="321.085" r="34.712"/>
	<circle style="fill:#4398D1;" cx="256" cy="147.525" r="60.746"/>
</g>
<path style="fill:#FEC9A3;" d="M412.203,277.695c-14.379,0-26.034,11.655-26.034,26.034c0-14.379-11.655-26.034-26.034-26.034
	s-26.034,11.655-26.034,26.034c0-14.379-11.654-26.034-26.034-26.034c-14.379,0-26.034,11.655-26.034,26.034V164.881
	c0-14.379-11.655-26.034-26.034-26.034c-14.379,0-26.034,11.655-26.034,26.034v182.237c0-28.759-23.309-52.068-52.068-52.068
	v156.203L238.644,512h199.593V303.729C438.237,289.349,426.583,277.695,412.203,277.695z"/>
<path style="fill:#F7C097;" d="M412.203,277.695c-0.252,0-0.477,0.069-0.729,0.069C364.284,399.889,266.414,457.641,210.58,483.935
	L238.644,512h199.593V303.729C438.237,289.349,426.583,277.695,412.203,277.695z"/>
<path style="fill:#F5B789;" d="M229.966,416.542c-4.79,0-8.678-3.888-8.678-8.678v-60.746c0-4.79,3.888-8.678,8.678-8.678
	s8.678,3.888,8.678,8.678v60.746C238.644,412.655,234.756,416.542,229.966,416.542z"/>
<g>
</g>
<g>
</g>
<g>
</g>
<g>
</g>
<g>
</g>
<g>
</g>
<g>
</g>
<g>
</g>
<g>
</g>
<g>
</g>
<g>
</g>
<g>
</g>
<g>
</g>
<g>
</g>
<g>
</g>
</svg>
