<?xml version="1.0" encoding="iso-8859-1"?>
<!-- Generator: Adobe Illustrator 19.0.0, SVG Export Plug-In . SVG Version: 6.00 Build 0)  -->
<svg version="1.1" id="Capa_1" xmlns="http://www.w3.org/2000/svg" xmlns:xlink="http://www.w3.org/1999/xlink" x="0px" y="0px"
	 viewBox="0 0 512 512" style="enable-background:new 0 0 512 512;" xml:space="preserve">
<rect x="282.483" style="fill:#91562F;" width="229.517" height="423.724"/>
<rect x="282.483" style="fill:#E0D2C1;" width="194.207" height="388.414"/>
<rect x="52.966" style="fill:#824A24;" width="229.517" height="423.724"/>
<rect x="88.276" style="fill:#E0D2C1;" width="194.207" height="388.414"/>
<polygon style="fill:#F0E4D6;" points="476.69,388.414 282.483,388.414 282.483,0 406.069,0 476.69,70.621 "/>
<g>
	<polygon style="fill:#CCBFB0;" points="406.069,0 476.69,70.621 406.069,70.621 	"/>
	<rect x="114.759" y="61.793" style="fill:#CCBFB0;" width="141.241" height="17.655"/>
	<rect x="220.69" y="114.759" style="fill:#CCBFB0;" width="35.31" height="17.655"/>
	<rect x="114.759" y="114.759" style="fill:#CCBFB0;" width="88.276" height="17.655"/>
	<rect x="414.897" y="114.759" style="fill:#CCBFB0;" width="35.31" height="17.655"/>
	<rect x="308.966" y="114.759" style="fill:#CCBFB0;" width="88.276" height="17.655"/>
	<rect x="414.897" y="167.724" style="fill:#CCBFB0;" width="35.31" height="17.655"/>
	<rect x="308.966" y="167.724" style="fill:#CCBFB0;" width="88.276" height="17.655"/>
	<rect x="414.897" y="220.69" style="fill:#CCBFB0;" width="35.31" height="17.655"/>
	<rect x="308.966" y="220.69" style="fill:#CCBFB0;" width="88.276" height="17.655"/>
	<rect x="414.897" y="273.655" style="fill:#CCBFB0;" width="35.31" height="17.655"/>
	<rect x="308.966" y="273.655" style="fill:#CCBFB0;" width="88.276" height="17.655"/>
	<rect x="414.897" y="326.621" style="fill:#CCBFB0;" width="35.31" height="17.655"/>
	<rect x="308.966" y="326.621" style="fill:#CCBFB0;" width="88.276" height="17.655"/>
	<rect x="308.966" y="61.793" style="fill:#CCBFB0;" width="70.621" height="17.655"/>
</g>
<polygon style="fill:#4398D1;" points="512,512 317.793,512 300.138,494.345 317.793,476.69 512,476.69 "/>
<rect x="467.862" y="476.69" style="fill:#3685BA;" width="17.655" height="35.31"/>
<rect y="158.897" style="fill:#4398D1;" width="247.172" height="353.103"/>
<polygon style="fill:#3F8FC4;" points="0,467.862 0,512 247.172,512 247.172,220.69 "/>
<g>
	<rect x="35.31" y="441.379" style="fill:#E8594A;" width="35.31" height="35.31"/>
	<rect x="105.931" y="441.379" style="fill:#E8594A;" width="35.31" height="35.31"/>
	<rect x="176.552" y="370.759" style="fill:#E8594A;" width="35.31" height="105.931"/>
	<rect x="35.31" y="370.759" style="fill:#E8594A;" width="35.31" height="35.31"/>
	<rect x="105.931" y="370.759" style="fill:#E8594A;" width="35.31" height="35.31"/>
	<rect x="35.31" y="300.138" style="fill:#E8594A;" width="35.31" height="35.31"/>
	<rect x="105.931" y="300.138" style="fill:#E8594A;" width="35.31" height="35.31"/>
	<rect x="176.552" y="300.138" style="fill:#E8594A;" width="35.31" height="35.31"/>
</g>
<rect x="35.31" y="194.207" style="fill:#87CED9;" width="176.552" height="70.621"/>
<polygon style="fill:#7DC6D1;" points="79.448,264.828 211.862,264.828 211.862,194.207 150.069,194.207 "/>
<g>
	<rect x="167.724" y="220.69" style="fill:#266599;" width="17.655" height="17.655"/>
	<rect x="132.414" y="220.69" style="fill:#266599;" width="17.655" height="17.655"/>
	<rect x="97.103" y="220.69" style="fill:#266599;" width="17.655" height="17.655"/>
</g>
<g>
</g>
<g>
</g>
<g>
</g>
<g>
</g>
<g>
</g>
<g>
</g>
<g>
</g>
<g>
</g>
<g>
</g>
<g>
</g>
<g>
</g>
<g>
</g>
<g>
</g>
<g>
</g>
<g>
</g>
</svg>
